<?xml version="1.0" encoding="utf-8"?>
<svg xmlns="http://www.w3.org/2000/svg" xmlns:xlink="http://www.w3.org/1999/xlink" width="600" height="400" viewBox="0 0 2400 1600">
<defs>
  <clipPath id="clip040">
    <rect x="0" y="0" width="2400" height="1600"/>
  </clipPath>
</defs>
<path clip-path="url(#clip040)" d="
M0 1600 L2400 1600 L2400 0 L0 0  Z
  " fill="#ffffff" fill-rule="evenodd" fill-opacity="1"/>
<defs>
  <clipPath id="clip041">
    <rect x="480" y="0" width="1681" height="1600"/>
  </clipPath>
</defs>
<path clip-path="url(#clip040)" d="
M277.431 1486.45 L2352.76 1486.45 L2352.76 47.2441 L277.431 47.2441  Z
  " fill="#ffffff" fill-rule="evenodd" fill-opacity="1"/>
<defs>
  <clipPath id="clip042">
    <rect x="277" y="47" width="2076" height="1440"/>
  </clipPath>
</defs>
<polyline clip-path="url(#clip042)" style="stroke:#000000; stroke-linecap:butt; stroke-linejoin:round; stroke-width:2; stroke-opacity:0.1; fill:none" points="
  288.358,1486.45 288.358,47.2441 
  "/>
<polyline clip-path="url(#clip042)" style="stroke:#000000; stroke-linecap:butt; stroke-linejoin:round; stroke-width:2; stroke-opacity:0.1; fill:none" points="
  1121.58,1486.45 1121.58,47.2441 
  "/>
<polyline clip-path="url(#clip042)" style="stroke:#000000; stroke-linecap:butt; stroke-linejoin:round; stroke-width:2; stroke-opacity:0.1; fill:none" points="
  1952.53,1486.45 1952.53,47.2441 
  "/>
<polyline clip-path="url(#clip040)" style="stroke:#000000; stroke-linecap:butt; stroke-linejoin:round; stroke-width:4; stroke-opacity:1; fill:none" points="
  277.431,1486.45 2352.76,1486.45 
  "/>
<polyline clip-path="url(#clip040)" style="stroke:#000000; stroke-linecap:butt; stroke-linejoin:round; stroke-width:4; stroke-opacity:1; fill:none" points="
  288.358,1486.45 288.358,1467.55 
  "/>
<polyline clip-path="url(#clip040)" style="stroke:#000000; stroke-linecap:butt; stroke-linejoin:round; stroke-width:4; stroke-opacity:1; fill:none" points="
  1121.58,1486.45 1121.58,1467.55 
  "/>
<polyline clip-path="url(#clip040)" style="stroke:#000000; stroke-linecap:butt; stroke-linejoin:round; stroke-width:4; stroke-opacity:1; fill:none" points="
  1952.53,1486.45 1952.53,1467.55 
  "/>
<path clip-path="url(#clip040)" d="M160.153 1544.91 L176.473 1544.91 L176.473 1548.85 L154.528 1548.85 L154.528 1544.91 Q157.19 1542.16 161.774 1537.53 Q166.38 1532.88 167.561 1531.53 Q169.806 1529.01 170.685 1527.27 Q171.588 1525.51 171.588 1523.82 Q171.588 1521.07 169.644 1519.33 Q167.723 1517.6 164.621 1517.6 Q162.422 1517.6 159.968 1518.36 Q157.537 1519.13 154.76 1520.68 L154.76 1515.95 Q157.584 1514.82 160.037 1514.24 Q162.491 1513.66 164.528 1513.66 Q169.898 1513.66 173.093 1516.35 Q176.287 1519.03 176.287 1523.52 Q176.287 1525.65 175.477 1527.57 Q174.69 1529.47 172.584 1532.07 Q172.005 1532.74 168.903 1535.95 Q165.801 1539.15 160.153 1544.91 Z" fill="#000000" fill-rule="evenodd" fill-opacity="1" /><path clip-path="url(#clip040)" d="M196.287 1517.37 Q192.676 1517.37 190.847 1520.93 Q189.042 1524.47 189.042 1531.6 Q189.042 1538.71 190.847 1542.27 Q192.676 1545.82 196.287 1545.82 Q199.921 1545.82 201.727 1542.27 Q203.556 1538.71 203.556 1531.6 Q203.556 1524.47 201.727 1520.93 Q199.921 1517.37 196.287 1517.37 M196.287 1513.66 Q202.097 1513.66 205.153 1518.27 Q208.232 1522.85 208.232 1531.6 Q208.232 1540.33 205.153 1544.94 Q202.097 1549.52 196.287 1549.52 Q190.477 1549.52 187.398 1544.94 Q184.343 1540.33 184.343 1531.6 Q184.343 1522.85 187.398 1518.27 Q190.477 1513.66 196.287 1513.66 Z" fill="#000000" fill-rule="evenodd" fill-opacity="1" /><path clip-path="url(#clip040)" d="M220.477 1544.91 L236.796 1544.91 L236.796 1548.85 L214.852 1548.85 L214.852 1544.91 Q217.514 1542.16 222.097 1537.53 Q226.704 1532.88 227.884 1531.53 Q230.13 1529.01 231.009 1527.27 Q231.912 1525.51 231.912 1523.82 Q231.912 1521.07 229.968 1519.33 Q228.046 1517.6 224.944 1517.6 Q222.745 1517.6 220.292 1518.36 Q217.861 1519.13 215.083 1520.68 L215.083 1515.95 Q217.907 1514.82 220.361 1514.24 Q222.815 1513.66 224.852 1513.66 Q230.222 1513.66 233.417 1516.35 Q236.611 1519.03 236.611 1523.52 Q236.611 1525.65 235.801 1527.57 Q235.014 1529.47 232.907 1532.07 Q232.329 1532.74 229.227 1535.95 Q226.125 1539.15 220.477 1544.91 Z" fill="#000000" fill-rule="evenodd" fill-opacity="1" /><path clip-path="url(#clip040)" d="M256.611 1517.37 Q253 1517.37 251.171 1520.93 Q249.366 1524.47 249.366 1531.6 Q249.366 1538.71 251.171 1542.27 Q253 1545.82 256.611 1545.82 Q260.245 1545.82 262.051 1542.27 Q263.879 1538.71 263.879 1531.6 Q263.879 1524.47 262.051 1520.93 Q260.245 1517.37 256.611 1517.37 M256.611 1513.66 Q262.421 1513.66 265.477 1518.27 Q268.555 1522.85 268.555 1531.6 Q268.555 1540.33 265.477 1544.94 Q262.421 1549.52 256.611 1549.52 Q250.801 1549.52 247.722 1544.94 Q244.667 1540.33 244.667 1531.6 Q244.667 1522.85 247.722 1518.27 Q250.801 1513.66 256.611 1513.66 Z" fill="#000000" fill-rule="evenodd" fill-opacity="1" /><path clip-path="url(#clip040)" d="M274.018 1533.96 L286.495 1533.96 L286.495 1537.76 L274.018 1537.76 L274.018 1533.96 Z" fill="#000000" fill-rule="evenodd" fill-opacity="1" /><path clip-path="url(#clip040)" d="M303.879 1517.37 Q300.268 1517.37 298.439 1520.93 Q296.634 1524.47 296.634 1531.6 Q296.634 1538.71 298.439 1542.27 Q300.268 1545.82 303.879 1545.82 Q307.513 1545.82 309.319 1542.27 Q311.148 1538.71 311.148 1531.6 Q311.148 1524.47 309.319 1520.93 Q307.513 1517.37 303.879 1517.37 M303.879 1513.66 Q309.689 1513.66 312.745 1518.27 Q315.824 1522.85 315.824 1531.6 Q315.824 1540.33 312.745 1544.94 Q309.689 1549.52 303.879 1549.52 Q298.069 1549.52 294.99 1544.94 Q291.935 1540.33 291.935 1531.6 Q291.935 1522.85 294.99 1518.27 Q298.069 1513.66 303.879 1513.66 Z" fill="#000000" fill-rule="evenodd" fill-opacity="1" /><path clip-path="url(#clip040)" d="M324.851 1544.91 L332.49 1544.91 L332.49 1518.55 L324.18 1520.21 L324.18 1515.95 L332.444 1514.29 L337.12 1514.29 L337.12 1544.91 L344.759 1544.91 L344.759 1548.85 L324.851 1548.85 L324.851 1544.91 Z" fill="#000000" fill-rule="evenodd" fill-opacity="1" /><path clip-path="url(#clip040)" d="M351.448 1533.96 L363.925 1533.96 L363.925 1537.76 L351.448 1537.76 L351.448 1533.96 Z" fill="#000000" fill-rule="evenodd" fill-opacity="1" /><path clip-path="url(#clip040)" d="M381.309 1517.37 Q377.698 1517.37 375.87 1520.93 Q374.064 1524.47 374.064 1531.6 Q374.064 1538.71 375.87 1542.27 Q377.698 1545.82 381.309 1545.82 Q384.944 1545.82 386.749 1542.27 Q388.578 1538.71 388.578 1531.6 Q388.578 1524.47 386.749 1520.93 Q384.944 1517.37 381.309 1517.37 M381.309 1513.66 Q387.12 1513.66 390.175 1518.27 Q393.254 1522.85 393.254 1531.6 Q393.254 1540.33 390.175 1544.94 Q387.12 1549.52 381.309 1549.52 Q375.499 1549.52 372.421 1544.94 Q369.365 1540.33 369.365 1531.6 Q369.365 1522.85 372.421 1518.27 Q375.499 1513.66 381.309 1513.66 Z" fill="#000000" fill-rule="evenodd" fill-opacity="1" /><path clip-path="url(#clip040)" d="M402.281 1544.91 L409.92 1544.91 L409.92 1518.55 L401.61 1520.21 L401.61 1515.95 L409.874 1514.29 L414.55 1514.29 L414.55 1544.91 L422.189 1544.91 L422.189 1548.85 L402.281 1548.85 L402.281 1544.91 Z" fill="#000000" fill-rule="evenodd" fill-opacity="1" /><path clip-path="url(#clip040)" d="M993.379 1544.91 L1009.7 1544.91 L1009.7 1548.85 L987.754 1548.85 L987.754 1544.91 Q990.416 1542.16 995 1537.53 Q999.606 1532.88 1000.79 1531.53 Q1003.03 1529.01 1003.91 1527.27 Q1004.81 1525.51 1004.81 1523.82 Q1004.81 1521.07 1002.87 1519.33 Q1000.95 1517.6 997.847 1517.6 Q995.648 1517.6 993.194 1518.36 Q990.764 1519.13 987.986 1520.68 L987.986 1515.95 Q990.81 1514.82 993.264 1514.24 Q995.717 1513.66 997.754 1513.66 Q1003.12 1513.66 1006.32 1516.35 Q1009.51 1519.03 1009.51 1523.52 Q1009.51 1525.65 1008.7 1527.57 Q1007.92 1529.47 1005.81 1532.07 Q1005.23 1532.74 1002.13 1535.95 Q999.027 1539.15 993.379 1544.91 Z" fill="#000000" fill-rule="evenodd" fill-opacity="1" /><path clip-path="url(#clip040)" d="M1029.51 1517.37 Q1025.9 1517.37 1024.07 1520.93 Q1022.27 1524.47 1022.27 1531.6 Q1022.27 1538.71 1024.07 1542.27 Q1025.9 1545.82 1029.51 1545.82 Q1033.15 1545.82 1034.95 1542.27 Q1036.78 1538.71 1036.78 1531.6 Q1036.78 1524.47 1034.95 1520.93 Q1033.15 1517.37 1029.51 1517.37 M1029.51 1513.66 Q1035.32 1513.66 1038.38 1518.27 Q1041.46 1522.85 1041.46 1531.6 Q1041.46 1540.33 1038.38 1544.94 Q1035.32 1549.52 1029.51 1549.52 Q1023.7 1549.52 1020.62 1544.94 Q1017.57 1540.33 1017.57 1531.6 Q1017.57 1522.85 1020.62 1518.27 Q1023.7 1513.66 1029.51 1513.66 Z" fill="#000000" fill-rule="evenodd" fill-opacity="1" /><path clip-path="url(#clip040)" d="M1053.7 1544.91 L1070.02 1544.91 L1070.02 1548.85 L1048.08 1548.85 L1048.08 1544.91 Q1050.74 1542.16 1055.32 1537.53 Q1059.93 1532.88 1061.11 1531.53 Q1063.36 1529.01 1064.24 1527.27 Q1065.14 1525.51 1065.14 1523.82 Q1065.14 1521.07 1063.19 1519.33 Q1061.27 1517.6 1058.17 1517.6 Q1055.97 1517.6 1053.52 1518.36 Q1051.09 1519.13 1048.31 1520.68 L1048.31 1515.95 Q1051.13 1514.82 1053.59 1514.24 Q1056.04 1513.66 1058.08 1513.66 Q1063.45 1513.66 1066.64 1516.35 Q1069.84 1519.03 1069.84 1523.52 Q1069.84 1525.65 1069.03 1527.57 Q1068.24 1529.47 1066.13 1532.07 Q1065.55 1532.74 1062.45 1535.95 Q1059.35 1539.15 1053.7 1544.91 Z" fill="#000000" fill-rule="evenodd" fill-opacity="1" /><path clip-path="url(#clip040)" d="M1080.65 1544.91 L1088.29 1544.91 L1088.29 1518.55 L1079.98 1520.21 L1079.98 1515.95 L1088.24 1514.29 L1092.92 1514.29 L1092.92 1544.91 L1100.55 1544.91 L1100.55 1548.85 L1080.65 1548.85 L1080.65 1544.91 Z" fill="#000000" fill-rule="evenodd" fill-opacity="1" /><path clip-path="url(#clip040)" d="M1107.24 1533.96 L1119.72 1533.96 L1119.72 1537.76 L1107.24 1537.76 L1107.24 1533.96 Z" fill="#000000" fill-rule="evenodd" fill-opacity="1" /><path clip-path="url(#clip040)" d="M1137.11 1517.37 Q1133.49 1517.37 1131.67 1520.93 Q1129.86 1524.47 1129.86 1531.6 Q1129.86 1538.71 1131.67 1542.27 Q1133.49 1545.82 1137.11 1545.82 Q1140.74 1545.82 1142.55 1542.27 Q1144.37 1538.71 1144.37 1531.6 Q1144.37 1524.47 1142.55 1520.93 Q1140.74 1517.37 1137.11 1517.37 M1137.11 1513.66 Q1142.92 1513.66 1145.97 1518.27 Q1149.05 1522.85 1149.05 1531.6 Q1149.05 1540.33 1145.97 1544.94 Q1142.92 1549.52 1137.11 1549.52 Q1131.3 1549.52 1128.22 1544.94 Q1125.16 1540.33 1125.16 1531.6 Q1125.16 1522.85 1128.22 1518.27 Q1131.3 1513.66 1137.11 1513.66 Z" fill="#000000" fill-rule="evenodd" fill-opacity="1" /><path clip-path="url(#clip040)" d="M1158.08 1544.91 L1165.72 1544.91 L1165.72 1518.55 L1157.41 1520.21 L1157.41 1515.95 L1165.67 1514.29 L1170.35 1514.29 L1170.35 1544.91 L1177.98 1544.91 L1177.98 1548.85 L1158.08 1548.85 L1158.08 1544.91 Z" fill="#000000" fill-rule="evenodd" fill-opacity="1" /><path clip-path="url(#clip040)" d="M1184.67 1533.96 L1197.15 1533.96 L1197.15 1537.76 L1184.67 1537.76 L1184.67 1533.96 Z" fill="#000000" fill-rule="evenodd" fill-opacity="1" /><path clip-path="url(#clip040)" d="M1214.54 1517.37 Q1210.92 1517.37 1209.1 1520.93 Q1207.29 1524.47 1207.29 1531.6 Q1207.29 1538.71 1209.1 1542.27 Q1210.92 1545.82 1214.54 1545.82 Q1218.17 1545.82 1219.98 1542.27 Q1221.8 1538.71 1221.8 1531.6 Q1221.8 1524.47 1219.98 1520.93 Q1218.17 1517.37 1214.54 1517.37 M1214.54 1513.66 Q1220.35 1513.66 1223.4 1518.27 Q1226.48 1522.85 1226.48 1531.6 Q1226.48 1540.33 1223.4 1544.94 Q1220.35 1549.52 1214.54 1549.52 Q1208.73 1549.52 1205.65 1544.94 Q1202.59 1540.33 1202.59 1531.6 Q1202.59 1522.85 1205.65 1518.27 Q1208.73 1513.66 1214.54 1513.66 Z" fill="#000000" fill-rule="evenodd" fill-opacity="1" /><path clip-path="url(#clip040)" d="M1235.51 1544.91 L1243.15 1544.91 L1243.15 1518.55 L1234.84 1520.21 L1234.84 1515.95 L1243.1 1514.29 L1247.78 1514.29 L1247.78 1544.91 L1255.41 1544.91 L1255.41 1548.85 L1235.51 1548.85 L1235.51 1544.91 Z" fill="#000000" fill-rule="evenodd" fill-opacity="1" /><path clip-path="url(#clip040)" d="M1824.33 1544.91 L1840.65 1544.91 L1840.65 1548.85 L1818.7 1548.85 L1818.7 1544.91 Q1821.37 1542.16 1825.95 1537.53 Q1830.56 1532.88 1831.74 1531.53 Q1833.98 1529.01 1834.86 1527.27 Q1835.76 1525.51 1835.76 1523.82 Q1835.76 1521.07 1833.82 1519.33 Q1831.9 1517.6 1828.8 1517.6 Q1826.6 1517.6 1824.14 1518.36 Q1821.71 1519.13 1818.94 1520.68 L1818.94 1515.95 Q1821.76 1514.82 1824.21 1514.24 Q1826.67 1513.66 1828.7 1513.66 Q1834.07 1513.66 1837.27 1516.35 Q1840.46 1519.03 1840.46 1523.52 Q1840.46 1525.65 1839.65 1527.57 Q1838.87 1529.47 1836.76 1532.07 Q1836.18 1532.74 1833.08 1535.95 Q1829.98 1539.15 1824.33 1544.91 Z" fill="#000000" fill-rule="evenodd" fill-opacity="1" /><path clip-path="url(#clip040)" d="M1860.46 1517.37 Q1856.85 1517.37 1855.02 1520.93 Q1853.22 1524.47 1853.22 1531.6 Q1853.22 1538.71 1855.02 1542.27 Q1856.85 1545.82 1860.46 1545.82 Q1864.1 1545.82 1865.9 1542.27 Q1867.73 1538.71 1867.73 1531.6 Q1867.73 1524.47 1865.9 1520.93 Q1864.1 1517.37 1860.46 1517.37 M1860.46 1513.66 Q1866.27 1513.66 1869.33 1518.27 Q1872.41 1522.85 1872.41 1531.6 Q1872.41 1540.33 1869.33 1544.94 Q1866.27 1549.52 1860.46 1549.52 Q1854.65 1549.52 1851.57 1544.94 Q1848.52 1540.33 1848.52 1531.6 Q1848.52 1522.85 1851.57 1518.27 Q1854.65 1513.66 1860.46 1513.66 Z" fill="#000000" fill-rule="evenodd" fill-opacity="1" /><path clip-path="url(#clip040)" d="M1884.65 1544.91 L1900.97 1544.91 L1900.97 1548.85 L1879.03 1548.85 L1879.03 1544.91 Q1881.69 1542.16 1886.27 1537.53 Q1890.88 1532.88 1892.06 1531.53 Q1894.31 1529.01 1895.18 1527.27 Q1896.09 1525.51 1896.09 1523.82 Q1896.09 1521.07 1894.14 1519.33 Q1892.22 1517.6 1889.12 1517.6 Q1886.92 1517.6 1884.47 1518.36 Q1882.04 1519.13 1879.26 1520.68 L1879.26 1515.95 Q1882.08 1514.82 1884.54 1514.24 Q1886.99 1513.66 1889.03 1513.66 Q1894.4 1513.66 1897.59 1516.35 Q1900.79 1519.03 1900.79 1523.52 Q1900.79 1525.65 1899.98 1527.57 Q1899.19 1529.47 1897.08 1532.07 Q1896.5 1532.74 1893.4 1535.95 Q1890.3 1539.15 1884.65 1544.91 Z" fill="#000000" fill-rule="evenodd" fill-opacity="1" /><path clip-path="url(#clip040)" d="M1914.81 1544.91 L1931.13 1544.91 L1931.13 1548.85 L1909.19 1548.85 L1909.19 1544.91 Q1911.85 1542.16 1916.43 1537.53 Q1921.04 1532.88 1922.22 1531.53 Q1924.47 1529.01 1925.35 1527.27 Q1926.25 1525.51 1926.25 1523.82 Q1926.25 1521.07 1924.31 1519.33 Q1922.38 1517.6 1919.28 1517.6 Q1917.08 1517.6 1914.63 1518.36 Q1912.2 1519.13 1909.42 1520.68 L1909.42 1515.95 Q1912.25 1514.82 1914.7 1514.24 Q1917.15 1513.66 1919.19 1513.66 Q1924.56 1513.66 1927.75 1516.35 Q1930.95 1519.03 1930.95 1523.52 Q1930.95 1525.65 1930.14 1527.57 Q1929.35 1529.47 1927.24 1532.07 Q1926.67 1532.74 1923.56 1535.95 Q1920.46 1539.15 1914.81 1544.91 Z" fill="#000000" fill-rule="evenodd" fill-opacity="1" /><path clip-path="url(#clip040)" d="M1938.19 1533.96 L1950.67 1533.96 L1950.67 1537.76 L1938.19 1537.76 L1938.19 1533.96 Z" fill="#000000" fill-rule="evenodd" fill-opacity="1" /><path clip-path="url(#clip040)" d="M1968.05 1517.37 Q1964.44 1517.37 1962.62 1520.93 Q1960.81 1524.47 1960.81 1531.6 Q1960.81 1538.71 1962.62 1542.27 Q1964.44 1545.82 1968.05 1545.82 Q1971.69 1545.82 1973.49 1542.27 Q1975.32 1538.71 1975.32 1531.6 Q1975.32 1524.47 1973.49 1520.93 Q1971.69 1517.37 1968.05 1517.37 M1968.05 1513.66 Q1973.87 1513.66 1976.92 1518.27 Q1980 1522.85 1980 1531.6 Q1980 1540.33 1976.92 1544.94 Q1973.87 1549.52 1968.05 1549.52 Q1962.24 1549.52 1959.17 1544.94 Q1956.11 1540.33 1956.11 1531.6 Q1956.11 1522.85 1959.17 1518.27 Q1962.24 1513.66 1968.05 1513.66 Z" fill="#000000" fill-rule="evenodd" fill-opacity="1" /><path clip-path="url(#clip040)" d="M1989.03 1544.91 L1996.67 1544.91 L1996.67 1518.55 L1988.36 1520.21 L1988.36 1515.95 L1996.62 1514.29 L2001.3 1514.29 L2001.3 1544.91 L2008.93 1544.91 L2008.93 1548.85 L1989.03 1548.85 L1989.03 1544.91 Z" fill="#000000" fill-rule="evenodd" fill-opacity="1" /><path clip-path="url(#clip040)" d="M2015.62 1533.96 L2028.1 1533.96 L2028.1 1537.76 L2015.62 1537.76 L2015.62 1533.96 Z" fill="#000000" fill-rule="evenodd" fill-opacity="1" /><path clip-path="url(#clip040)" d="M2045.49 1517.37 Q2041.87 1517.37 2040.05 1520.93 Q2038.24 1524.47 2038.24 1531.6 Q2038.24 1538.71 2040.05 1542.27 Q2041.87 1545.82 2045.49 1545.82 Q2049.12 1545.82 2050.92 1542.27 Q2052.75 1538.71 2052.75 1531.6 Q2052.75 1524.47 2050.92 1520.93 Q2049.12 1517.37 2045.49 1517.37 M2045.49 1513.66 Q2051.3 1513.66 2054.35 1518.27 Q2057.43 1522.85 2057.43 1531.6 Q2057.43 1540.33 2054.35 1544.94 Q2051.3 1549.52 2045.49 1549.52 Q2039.67 1549.52 2036.6 1544.94 Q2033.54 1540.33 2033.54 1531.6 Q2033.54 1522.85 2036.6 1518.27 Q2039.67 1513.66 2045.49 1513.66 Z" fill="#000000" fill-rule="evenodd" fill-opacity="1" /><path clip-path="url(#clip040)" d="M2066.46 1544.91 L2074.1 1544.91 L2074.1 1518.55 L2065.79 1520.21 L2065.79 1515.95 L2074.05 1514.29 L2078.73 1514.29 L2078.73 1544.91 L2086.36 1544.91 L2086.36 1548.85 L2066.46 1548.85 L2066.46 1544.91 Z" fill="#000000" fill-rule="evenodd" fill-opacity="1" /><polyline clip-path="url(#clip042)" style="stroke:#000000; stroke-linecap:butt; stroke-linejoin:round; stroke-width:2; stroke-opacity:0.1; fill:none" points="
  277.431,1445.72 2352.76,1445.72 
  "/>
<polyline clip-path="url(#clip042)" style="stroke:#000000; stroke-linecap:butt; stroke-linejoin:round; stroke-width:2; stroke-opacity:0.1; fill:none" points="
  277.431,1115.12 2352.76,1115.12 
  "/>
<polyline clip-path="url(#clip042)" style="stroke:#000000; stroke-linecap:butt; stroke-linejoin:round; stroke-width:2; stroke-opacity:0.1; fill:none" points="
  277.431,784.533 2352.76,784.533 
  "/>
<polyline clip-path="url(#clip042)" style="stroke:#000000; stroke-linecap:butt; stroke-linejoin:round; stroke-width:2; stroke-opacity:0.1; fill:none" points="
  277.431,453.941 2352.76,453.941 
  "/>
<polyline clip-path="url(#clip042)" style="stroke:#000000; stroke-linecap:butt; stroke-linejoin:round; stroke-width:2; stroke-opacity:0.1; fill:none" points="
  277.431,123.35 2352.76,123.35 
  "/>
<polyline clip-path="url(#clip040)" style="stroke:#000000; stroke-linecap:butt; stroke-linejoin:round; stroke-width:4; stroke-opacity:1; fill:none" points="
  277.431,1486.45 277.431,47.2441 
  "/>
<polyline clip-path="url(#clip040)" style="stroke:#000000; stroke-linecap:butt; stroke-linejoin:round; stroke-width:4; stroke-opacity:1; fill:none" points="
  277.431,1445.72 296.329,1445.72 
  "/>
<polyline clip-path="url(#clip040)" style="stroke:#000000; stroke-linecap:butt; stroke-linejoin:round; stroke-width:4; stroke-opacity:1; fill:none" points="
  277.431,1115.12 296.329,1115.12 
  "/>
<polyline clip-path="url(#clip040)" style="stroke:#000000; stroke-linecap:butt; stroke-linejoin:round; stroke-width:4; stroke-opacity:1; fill:none" points="
  277.431,784.533 296.329,784.533 
  "/>
<polyline clip-path="url(#clip040)" style="stroke:#000000; stroke-linecap:butt; stroke-linejoin:round; stroke-width:4; stroke-opacity:1; fill:none" points="
  277.431,453.941 296.329,453.941 
  "/>
<polyline clip-path="url(#clip040)" style="stroke:#000000; stroke-linecap:butt; stroke-linejoin:round; stroke-width:4; stroke-opacity:1; fill:none" points="
  277.431,123.35 296.329,123.35 
  "/>
<path clip-path="url(#clip040)" d="M229.487 1431.51 Q225.875 1431.51 224.047 1435.08 Q222.241 1438.62 222.241 1445.75 Q222.241 1452.86 224.047 1456.42 Q225.875 1459.96 229.487 1459.96 Q233.121 1459.96 234.926 1456.42 Q236.755 1452.86 236.755 1445.75 Q236.755 1438.62 234.926 1435.08 Q233.121 1431.51 229.487 1431.51 M229.487 1427.81 Q235.297 1427.81 238.352 1432.42 Q241.431 1437 241.431 1445.75 Q241.431 1454.48 238.352 1459.08 Q235.297 1463.67 229.487 1463.67 Q223.676 1463.67 220.598 1459.08 Q217.542 1454.48 217.542 1445.75 Q217.542 1437 220.598 1432.42 Q223.676 1427.81 229.487 1427.81 Z" fill="#000000" fill-rule="evenodd" fill-opacity="1" /><path clip-path="url(#clip040)" d="M54.5569 1134.92 L62.1958 1134.92 L62.1958 1108.55 L53.8856 1110.22 L53.8856 1105.96 L62.1495 1104.29 L66.8254 1104.29 L66.8254 1134.92 L74.4642 1134.92 L74.4642 1138.85 L54.5569 1138.85 L54.5569 1134.92 Z" fill="#000000" fill-rule="evenodd" fill-opacity="1" /><path clip-path="url(#clip040)" d="M83.9086 1132.97 L88.7928 1132.97 L88.7928 1138.85 L83.9086 1138.85 L83.9086 1132.97 Z" fill="#000000" fill-rule="evenodd" fill-opacity="1" /><path clip-path="url(#clip040)" d="M108.978 1107.37 Q105.367 1107.37 103.538 1110.94 Q101.733 1114.48 101.733 1121.61 Q101.733 1128.71 103.538 1132.28 Q105.367 1135.82 108.978 1135.82 Q112.612 1135.82 114.418 1132.28 Q116.246 1128.71 116.246 1121.61 Q116.246 1114.48 114.418 1110.94 Q112.612 1107.37 108.978 1107.37 M108.978 1103.67 Q114.788 1103.67 117.844 1108.27 Q120.922 1112.86 120.922 1121.61 Q120.922 1130.33 117.844 1134.94 Q114.788 1139.52 108.978 1139.52 Q103.168 1139.52 100.089 1134.94 Q97.0335 1130.33 97.0335 1121.61 Q97.0335 1112.86 100.089 1108.27 Q103.168 1103.67 108.978 1103.67 Z" fill="#000000" fill-rule="evenodd" fill-opacity="1" /><path clip-path="url(#clip040)" d="M157.311 1113.39 L146.732 1124.01 L157.311 1134.59 L154.556 1137.39 L143.931 1126.77 L133.306 1137.39 L130.575 1134.59 L141.131 1124.01 L130.575 1113.39 L133.306 1110.59 L143.931 1121.21 L154.556 1110.59 L157.311 1113.39 Z" fill="#000000" fill-rule="evenodd" fill-opacity="1" /><path clip-path="url(#clip040)" d="M169.672 1134.92 L177.311 1134.92 L177.311 1108.55 L169.001 1110.22 L169.001 1105.96 L177.265 1104.29 L181.94 1104.29 L181.94 1134.92 L189.579 1134.92 L189.579 1138.85 L169.672 1138.85 L169.672 1134.92 Z" fill="#000000" fill-rule="evenodd" fill-opacity="1" /><path clip-path="url(#clip040)" d="M209.024 1107.37 Q205.413 1107.37 203.584 1110.94 Q201.778 1114.48 201.778 1121.61 Q201.778 1128.71 203.584 1132.28 Q205.413 1135.82 209.024 1135.82 Q212.658 1135.82 214.463 1132.28 Q216.292 1128.71 216.292 1121.61 Q216.292 1114.48 214.463 1110.94 Q212.658 1107.37 209.024 1107.37 M209.024 1103.67 Q214.834 1103.67 217.889 1108.27 Q220.968 1112.86 220.968 1121.61 Q220.968 1130.33 217.889 1134.94 Q214.834 1139.52 209.024 1139.52 Q203.214 1139.52 200.135 1134.94 Q197.079 1130.33 197.079 1121.61 Q197.079 1112.86 200.135 1108.27 Q203.214 1103.67 209.024 1103.67 Z" fill="#000000" fill-rule="evenodd" fill-opacity="1" /><path clip-path="url(#clip040)" d="M233.645 1086.67 L224.053 1101.66 L233.645 1101.66 L233.645 1086.67 M232.648 1083.36 L237.425 1083.36 L237.425 1101.66 L241.431 1101.66 L241.431 1104.82 L237.425 1104.82 L237.425 1111.44 L233.645 1111.44 L233.645 1104.82 L220.968 1104.82 L220.968 1101.15 L232.648 1083.36 Z" fill="#000000" fill-rule="evenodd" fill-opacity="1" /><path clip-path="url(#clip040)" d="M57.7745 804.325 L74.0939 804.325 L74.0939 808.26 L52.1495 808.26 L52.1495 804.325 Q54.8115 801.57 59.3949 796.941 Q64.0013 792.288 65.1819 790.946 Q67.4272 788.422 68.3068 786.686 Q69.2096 784.927 69.2096 783.237 Q69.2096 780.483 67.2652 778.747 Q65.3439 777.01 62.2421 777.01 Q60.043 777.01 57.5893 777.774 Q55.1588 778.538 52.381 780.089 L52.381 775.367 Q55.2051 774.233 57.6588 773.654 Q60.1124 773.075 62.1495 773.075 Q67.5198 773.075 70.7142 775.76 Q73.9087 778.446 73.9087 782.936 Q73.9087 785.066 73.0985 786.987 Q72.3115 788.885 70.205 791.478 Q69.6263 792.149 66.5245 795.367 Q63.4226 798.561 57.7745 804.325 Z" fill="#000000" fill-rule="evenodd" fill-opacity="1" /><path clip-path="url(#clip040)" d="M83.9086 802.381 L88.7928 802.381 L88.7928 808.26 L83.9086 808.26 L83.9086 802.381 Z" fill="#000000" fill-rule="evenodd" fill-opacity="1" /><path clip-path="url(#clip040)" d="M108.978 776.779 Q105.367 776.779 103.538 780.344 Q101.733 783.885 101.733 791.015 Q101.733 798.121 103.538 801.686 Q105.367 805.228 108.978 805.228 Q112.612 805.228 114.418 801.686 Q116.246 798.121 116.246 791.015 Q116.246 783.885 114.418 780.344 Q112.612 776.779 108.978 776.779 M108.978 773.075 Q114.788 773.075 117.844 777.682 Q120.922 782.265 120.922 791.015 Q120.922 799.742 117.844 804.348 Q114.788 808.932 108.978 808.932 Q103.168 808.932 100.089 804.348 Q97.0335 799.742 97.0335 791.015 Q97.0335 782.265 100.089 777.682 Q103.168 773.075 108.978 773.075 Z" fill="#000000" fill-rule="evenodd" fill-opacity="1" /><path clip-path="url(#clip040)" d="M157.311 782.797 L146.732 793.422 L157.311 804.001 L154.556 806.802 L143.931 796.177 L133.306 806.802 L130.575 804.001 L141.131 793.422 L130.575 782.797 L133.306 779.996 L143.931 790.621 L154.556 779.996 L157.311 782.797 Z" fill="#000000" fill-rule="evenodd" fill-opacity="1" /><path clip-path="url(#clip040)" d="M169.672 804.325 L177.311 804.325 L177.311 777.959 L169.001 779.626 L169.001 775.367 L177.265 773.7 L181.94 773.7 L181.94 804.325 L189.579 804.325 L189.579 808.26 L169.672 808.26 L169.672 804.325 Z" fill="#000000" fill-rule="evenodd" fill-opacity="1" /><path clip-path="url(#clip040)" d="M209.024 776.779 Q205.413 776.779 203.584 780.344 Q201.778 783.885 201.778 791.015 Q201.778 798.121 203.584 801.686 Q205.413 805.228 209.024 805.228 Q212.658 805.228 214.463 801.686 Q216.292 798.121 216.292 791.015 Q216.292 783.885 214.463 780.344 Q212.658 776.779 209.024 776.779 M209.024 773.075 Q214.834 773.075 217.889 777.682 Q220.968 782.265 220.968 791.015 Q220.968 799.742 217.889 804.348 Q214.834 808.932 209.024 808.932 Q203.214 808.932 200.135 804.348 Q197.079 799.742 197.079 791.015 Q197.079 782.265 200.135 777.682 Q203.214 773.075 209.024 773.075 Z" fill="#000000" fill-rule="evenodd" fill-opacity="1" /><path clip-path="url(#clip040)" d="M233.645 756.08 L224.053 771.07 L233.645 771.07 L233.645 756.08 M232.648 752.77 L237.425 752.77 L237.425 771.07 L241.431 771.07 L241.431 774.229 L237.425 774.229 L237.425 780.85 L233.645 780.85 L233.645 774.229 L220.968 774.229 L220.968 770.562 L232.648 752.77 Z" fill="#000000" fill-rule="evenodd" fill-opacity="1" /><path clip-path="url(#clip040)" d="M67.9133 459.035 Q71.2698 459.752 73.1448 462.021 Q75.0429 464.289 75.0429 467.622 Q75.0429 472.738 71.5244 475.539 Q68.0059 478.34 61.5245 478.34 Q59.3486 478.34 57.0338 477.9 Q54.7421 477.484 52.2884 476.627 L52.2884 472.113 Q54.2328 473.247 56.5477 473.826 Q58.8625 474.405 61.3856 474.405 Q65.7837 474.405 68.0754 472.669 Q70.3902 470.933 70.3902 467.622 Q70.3902 464.567 68.2374 462.854 Q66.1078 461.118 62.2884 461.118 L58.2606 461.118 L58.2606 457.275 L62.4735 457.275 Q65.9226 457.275 67.7513 455.91 Q69.58 454.521 69.58 451.928 Q69.58 449.266 67.6819 447.854 Q65.8069 446.419 62.2884 446.419 Q60.3671 446.419 58.168 446.836 Q55.969 447.252 53.3301 448.132 L53.3301 443.965 Q55.9921 443.224 58.3069 442.854 Q60.6449 442.484 62.705 442.484 Q68.0291 442.484 71.1309 444.914 Q74.2327 447.322 74.2327 451.442 Q74.2327 454.312 72.5892 456.303 Q70.9457 458.271 67.9133 459.035 Z" fill="#000000" fill-rule="evenodd" fill-opacity="1" /><path clip-path="url(#clip040)" d="M83.9086 471.789 L88.7928 471.789 L88.7928 477.669 L83.9086 477.669 L83.9086 471.789 Z" fill="#000000" fill-rule="evenodd" fill-opacity="1" /><path clip-path="url(#clip040)" d="M108.978 446.187 Q105.367 446.187 103.538 449.752 Q101.733 453.294 101.733 460.423 Q101.733 467.53 103.538 471.095 Q105.367 474.636 108.978 474.636 Q112.612 474.636 114.418 471.095 Q116.246 467.53 116.246 460.423 Q116.246 453.294 114.418 449.752 Q112.612 446.187 108.978 446.187 M108.978 442.484 Q114.788 442.484 117.844 447.09 Q120.922 451.673 120.922 460.423 Q120.922 469.15 117.844 473.757 Q114.788 478.34 108.978 478.34 Q103.168 478.34 100.089 473.757 Q97.0335 469.15 97.0335 460.423 Q97.0335 451.673 100.089 447.09 Q103.168 442.484 108.978 442.484 Z" fill="#000000" fill-rule="evenodd" fill-opacity="1" /><path clip-path="url(#clip040)" d="M157.311 452.206 L146.732 462.831 L157.311 473.409 L154.556 476.21 L143.931 465.585 L133.306 476.21 L130.575 473.409 L141.131 462.831 L130.575 452.206 L133.306 449.405 L143.931 460.03 L154.556 449.405 L157.311 452.206 Z" fill="#000000" fill-rule="evenodd" fill-opacity="1" /><path clip-path="url(#clip040)" d="M169.672 473.734 L177.311 473.734 L177.311 447.368 L169.001 449.035 L169.001 444.775 L177.265 443.109 L181.94 443.109 L181.94 473.734 L189.579 473.734 L189.579 477.669 L169.672 477.669 L169.672 473.734 Z" fill="#000000" fill-rule="evenodd" fill-opacity="1" /><path clip-path="url(#clip040)" d="M209.024 446.187 Q205.413 446.187 203.584 449.752 Q201.778 453.294 201.778 460.423 Q201.778 467.53 203.584 471.095 Q205.413 474.636 209.024 474.636 Q212.658 474.636 214.463 471.095 Q216.292 467.53 216.292 460.423 Q216.292 453.294 214.463 449.752 Q212.658 446.187 209.024 446.187 M209.024 442.484 Q214.834 442.484 217.889 447.09 Q220.968 451.673 220.968 460.423 Q220.968 469.15 217.889 473.757 Q214.834 478.34 209.024 478.34 Q203.214 478.34 200.135 473.757 Q197.079 469.15 197.079 460.423 Q197.079 451.673 200.135 447.09 Q203.214 442.484 209.024 442.484 Z" fill="#000000" fill-rule="evenodd" fill-opacity="1" /><path clip-path="url(#clip040)" d="M233.645 425.488 L224.053 440.478 L233.645 440.478 L233.645 425.488 M232.648 422.178 L237.425 422.178 L237.425 440.478 L241.431 440.478 L241.431 443.638 L237.425 443.638 L237.425 450.258 L233.645 450.258 L233.645 443.638 L220.968 443.638 L220.968 439.97 L232.648 422.178 Z" fill="#000000" fill-rule="evenodd" fill-opacity="1" /><path clip-path="url(#clip040)" d="M66.5939 116.591 L54.7884 135.04 L66.5939 135.04 L66.5939 116.591 M65.367 112.517 L71.2466 112.517 L71.2466 135.04 L76.1772 135.04 L76.1772 138.929 L71.2466 138.929 L71.2466 147.077 L66.5939 147.077 L66.5939 138.929 L50.9921 138.929 L50.9921 134.415 L65.367 112.517 Z" fill="#000000" fill-rule="evenodd" fill-opacity="1" /><path clip-path="url(#clip040)" d="M83.9086 141.198 L88.7928 141.198 L88.7928 147.077 L83.9086 147.077 L83.9086 141.198 Z" fill="#000000" fill-rule="evenodd" fill-opacity="1" /><path clip-path="url(#clip040)" d="M108.978 115.596 Q105.367 115.596 103.538 119.161 Q101.733 122.702 101.733 129.832 Q101.733 136.938 103.538 140.503 Q105.367 144.045 108.978 144.045 Q112.612 144.045 114.418 140.503 Q116.246 136.938 116.246 129.832 Q116.246 122.702 114.418 119.161 Q112.612 115.596 108.978 115.596 M108.978 111.892 Q114.788 111.892 117.844 116.499 Q120.922 121.082 120.922 129.832 Q120.922 138.559 117.844 143.165 Q114.788 147.748 108.978 147.748 Q103.168 147.748 100.089 143.165 Q97.0335 138.559 97.0335 129.832 Q97.0335 121.082 100.089 116.499 Q103.168 111.892 108.978 111.892 Z" fill="#000000" fill-rule="evenodd" fill-opacity="1" /><path clip-path="url(#clip040)" d="M157.311 121.614 L146.732 132.239 L157.311 142.818 L154.556 145.619 L143.931 134.994 L133.306 145.619 L130.575 142.818 L141.131 132.239 L130.575 121.614 L133.306 118.813 L143.931 129.438 L154.556 118.813 L157.311 121.614 Z" fill="#000000" fill-rule="evenodd" fill-opacity="1" /><path clip-path="url(#clip040)" d="M169.672 143.142 L177.311 143.142 L177.311 116.776 L169.001 118.443 L169.001 114.184 L177.265 112.517 L181.94 112.517 L181.94 143.142 L189.579 143.142 L189.579 147.077 L169.672 147.077 L169.672 143.142 Z" fill="#000000" fill-rule="evenodd" fill-opacity="1" /><path clip-path="url(#clip040)" d="M209.024 115.596 Q205.413 115.596 203.584 119.161 Q201.778 122.702 201.778 129.832 Q201.778 136.938 203.584 140.503 Q205.413 144.045 209.024 144.045 Q212.658 144.045 214.463 140.503 Q216.292 136.938 216.292 129.832 Q216.292 122.702 214.463 119.161 Q212.658 115.596 209.024 115.596 M209.024 111.892 Q214.834 111.892 217.889 116.499 Q220.968 121.082 220.968 129.832 Q220.968 138.559 217.889 143.165 Q214.834 147.748 209.024 147.748 Q203.214 147.748 200.135 143.165 Q197.079 138.559 197.079 129.832 Q197.079 121.082 200.135 116.499 Q203.214 111.892 209.024 111.892 Z" fill="#000000" fill-rule="evenodd" fill-opacity="1" /><path clip-path="url(#clip040)" d="M233.645 94.8969 L224.053 109.887 L233.645 109.887 L233.645 94.8969 M232.648 91.5868 L237.425 91.5868 L237.425 109.887 L241.431 109.887 L241.431 113.046 L237.425 113.046 L237.425 119.667 L233.645 119.667 L233.645 113.046 L220.968 113.046 L220.968 109.379 L232.648 91.5868 Z" fill="#000000" fill-rule="evenodd" fill-opacity="1" /><polyline clip-path="url(#clip042)" style="stroke:#009af9; stroke-linecap:butt; stroke-linejoin:round; stroke-width:4; stroke-opacity:1; fill:none" points="
  336.167,1445.72 338.443,1445.72 340.72,1445.72 342.996,1445.72 345.273,1445.72 347.549,1445.72 349.826,1445.72 352.103,1445.72 354.379,1445.72 356.656,1445.72 
  358.932,1445.72 361.209,1445.72 363.485,1445.72 365.762,1445.72 368.039,1445.72 370.315,1445.72 372.592,1445.72 374.868,1445.72 377.145,1445.72 379.421,1445.72 
  381.698,1445.72 383.975,1445.72 386.251,1445.72 388.528,1445.72 390.804,1445.72 393.081,1445.72 395.357,1445.72 397.634,1445.72 399.911,1445.72 402.187,1445.72 
  404.464,1445.72 406.74,1445.72 409.017,1445.72 411.293,1445.72 413.57,1445.72 415.847,1445.72 418.123,1445.72 420.4,1445.72 422.676,1445.72 424.953,1445.72 
  427.229,1445.72 429.506,1445.72 431.783,1445.72 434.059,1445.72 436.336,1445.72 438.612,1445.72 440.889,1445.68 443.166,1445.65 445.442,1445.65 447.719,1445.65 
  449.995,1445.62 452.272,1445.55 454.548,1445.55 456.825,1445.55 459.102,1445.42 461.378,1445.32 463.655,1445.09 465.931,1445.02 468.208,1444.79 470.484,1444.39 
  472.761,1444.19 475.038,1443.77 477.314,1443.4 479.591,1442.77 481.867,1442.08 484.144,1441.38 486.42,1440.23 488.697,1439 490.974,1437.65 493.25,1435.7 
  495.527,1434.05 497.803,1431.2 500.08,1427.37 502.356,1424.16 504.633,1421.02 506.91,1416.49 509.186,1412.29 511.463,1407.86 513.739,1403.6 516.016,1399.23 
  518.292,1394.28 520.569,1388.72 522.846,1382.24 525.122,1376.59 527.399,1370.44 529.675,1364.26 531.952,1357.78 534.228,1351.63 536.505,1345.28 538.782,1339.76 
  541.058,1333.78 543.335,1327.43 545.611,1321.28 547.888,1315.66 550.165,1309.25 552.441,1304.12 554.718,1298.7 556.994,1292.52 559.271,1285.44 561.547,1279.66 
  563.824,1273.21 566.101,1268.19 568.377,1263.56 570.654,1258.73 572.93,1254.1 575.207,1249.48 577.483,1245.48 579.76,1241.58 582.037,1237.15 584.313,1233.08 
  586.59,1229.24 588.866,1225.41 591.143,1222.17 593.419,1218.27 595.696,1214.14 597.973,1210.63 600.249,1207.56 602.526,1204.35 604.802,1201.54 607.079,1198.23 
  609.355,1195.29 611.632,1192.05 613.909,1189.14 616.185,1186.66 618.462,1183.92 620.738,1181.31 623.015,1178.96 625.291,1175.79 627.568,1173.21 629.845,1171.49 
  632.121,1169.94 634.398,1168.35 636.674,1167.09 638.951,1165.61 641.227,1164.68 643.504,1163.46 645.781,1162.37 648.057,1161.57 650.334,1160.65 652.61,1159.75 
  654.887,1158.93 657.163,1158 659.44,1157.31 661.717,1156.58 663.993,1156.22 666.27,1155.52 668.546,1155.09 670.823,1154.7 673.1,1154.27 675.376,1153.74 
  677.653,1153.54 679.929,1153.01 682.206,1152.55 684.482,1152.02 686.759,1151.39 689.036,1150.99 691.312,1150.7 693.589,1150.5 695.865,1150.2 698.142,1149.8 
  700.418,1149.51 702.695,1149.24 704.972,1148.68 707.248,1148.55 709.525,1148.35 711.801,1148.25 714.078,1147.82 716.354,1147.39 718.631,1147.03 720.908,1146.63 
  723.184,1146.43 725.461,1146.3 727.737,1146.23 730.014,1146.07 732.29,1145.9 734.567,1145.74 736.844,1145.37 739.12,1145.24 741.397,1145.17 743.673,1145.11 
  745.95,1144.98 748.226,1144.84 750.503,1144.65 752.78,1144.38 755.056,1144.28 757.333,1144.22 759.609,1144.18 761.886,1143.72 764.162,1143.56 766.439,1143.39 
  768.716,1143.06 770.992,1142.89 773.269,1142.83 775.545,1142.73 777.822,1142.73 780.098,1142.56 782.375,1142.4 784.652,1142.2 786.928,1142.03 789.205,1141.97 
  791.481,1141.9 793.758,1141.67 796.035,1141.47 798.311,1141.34 800.588,1141.14 802.864,1141.01 805.141,1140.84 807.417,1140.68 809.694,1140.55 811.971,1140.25 
  814.247,1140.05 816.524,1139.89 818.8,1139.52 821.077,1139.52 823.353,1139.29 825.63,1139.03 827.907,1138.89 830.183,1138.79 832.46,1138.66 834.736,1138.46 
  837.013,1138.4 839.289,1138.33 841.566,1138.1 843.843,1138 846.119,1137.87 848.396,1137.67 850.672,1137.57 852.949,1137.51 855.225,1137.51 857.502,1137.41 
  859.779,1137.17 862.055,1137.04 864.332,1136.74 866.608,1136.71 868.885,1136.55 871.161,1136.41 873.438,1135.98 875.715,1135.82 877.991,1135.62 880.268,1135.36 
  882.544,1134.96 884.821,1134.6 887.097,1134.53 889.374,1134.13 891.651,1133.8 893.927,1133.51 896.204,1133.08 898.48,1132.65 900.757,1132.22 903.033,1131.89 
  905.31,1131.22 907.587,1130.53 909.863,1129.77 912.14,1129.04 914.416,1128.45 916.693,1127.85 918.97,1127.32 921.246,1126.46 923.523,1125.74 925.799,1124.81 
  928.076,1124.12 930.352,1123.42 932.629,1122.66 934.906,1121.93 937.182,1121.5 939.459,1120.55 941.735,1119.39 944.012,1118.79 946.288,1117.67 948.565,1117.07 
  950.842,1116.41 953.118,1115.02 955.395,1114.17 957.671,1112.81 959.948,1111.39 962.224,1110.26 964.501,1109.04 966.778,1107.85 969.054,1106.63 971.331,1105.5 
  973.607,1103.82 975.884,1102.33 978.16,1100.64 980.437,1099.22 982.714,1098 984.99,1096.45 987.267,1094.23 989.543,1092.61 991.82,1090.96 994.096,1088.18 
  996.373,1086.26 998.65,1084.48 1000.93,1081.57 1003.2,1079.06 1005.48,1076.91 1007.76,1074.49 1010.03,1072.71 1012.31,1070.46 1014.59,1068.64 1016.86,1066.06 
  1019.14,1063.49 1021.42,1060.54 1023.69,1058.49 1025.97,1056.01 1028.25,1053.73 1030.52,1051.55 1032.8,1048.87 1035.07,1045.53 1037.35,1042.86 1039.63,1039.42 
  1041.9,1036.38 1044.18,1033.7 1046.46,1031.25 1048.73,1026.39 1051.01,1022.96 1053.29,1019.88 1055.56,1016.41 1057.84,1012.71 1060.12,1009.8 1062.39,1006.52 
  1064.67,1002.46 1066.95,998.491 1069.22,994.69 1071.5,990.59 1073.78,986.094 1076.05,981.863 1078.33,977.896 1080.61,972.871 1082.88,967.945 1085.16,963.647 
  1087.44,957.465 1089.71,952.407 1091.99,948.341 1094.27,944.241 1096.54,939.679 1098.82,934.72 1101.1,930.092 1103.37,925.365 1105.65,921.893 1107.93,918.191 
  1110.2,913 1112.48,909.364 1114.75,902.355 1117.03,897.992 1119.31,894.124 1121.58,891.512 1123.86,887.776 1126.14,883.776 1128.41,875.611 1130.69,870.156 
  1132.97,865.065 1135.24,859.445 1137.52,854.42 1139.8,849.064 1142.07,844.766 1144.35,839.477 1146.63,833.493 1148.9,828.171 1151.18,823.84 1153.46,819.179 
  1155.73,815.377 1158.01,811.674 1160.29,806.55 1162.56,801.525 1164.84,796.599 1167.12,791.839 1169.39,787.64 1171.67,784.169 1173.95,780.334 1176.22,776.499 
  1178.5,772.83 1180.78,770.516 1183.05,764.73 1185.33,761.061 1187.61,758.218 1189.88,755.705 1192.16,752.928 1194.43,750.349 1196.71,747.11 1198.99,744.101 
  1201.26,741.919 1203.54,739.87 1205.82,737.886 1208.09,736.101 1210.37,733.688 1212.65,731.142 1214.92,728.332 1217.2,726.117 1219.48,724.034 1221.75,722.976 
  1224.03,721.753 1226.31,719.406 1228.58,718.018 1230.86,716.861 1233.14,715.307 1235.41,713.951 1237.69,712.596 1239.97,710.844 1242.24,709.422 1244.52,707.769 
  1246.8,706.182 1249.07,705.058 1251.35,703.868 1253.63,703.24 1255.9,702.414 1258.18,701.323 1260.46,699.637 1262.73,698.116 1265.01,697.19 1267.29,696.199 
  1269.56,695.504 1271.84,694.05 1274.12,692.926 1276.39,691.901 1278.67,690.281 1280.94,689.223 1283.22,688.099 1285.5,687.107 1287.77,685.983 1290.05,685.025 
  1292.33,683.768 1294.6,682.281 1296.88,681.19 1299.16,680 1301.43,679.008 1303.71,677.09 1305.99,675.9 1308.26,675.074 1310.54,673.784 1312.82,672.33 
  1315.09,671.14 1317.37,670.247 1319.65,669.487 1321.92,668.264 1324.2,666.875 1326.48,665.454 1328.75,664.561 1331.03,663.635 1333.31,662.015 1335.58,660.429 
  1337.86,658.081 1340.14,656.131 1342.41,654.643 1344.69,652.792 1346.97,650.577 1349.24,649.188 1351.52,646.907 1353.8,644.792 1356.07,642.544 1358.35,640.262 
  1360.62,638.213 1362.9,636.262 1365.18,635.105 1367.45,633.188 1369.73,631.37 1372.01,629.75 1374.28,628.196 1376.56,626.212 1378.84,624.89 1381.11,623.435 
  1383.39,621.187 1385.67,619.865 1387.94,618.113 1390.22,617.022 1392.5,615.303 1394.77,613.782 1397.05,612.823 1399.33,611.237 1401.6,609.517 1403.88,608.691 
  1406.16,607.6 1408.43,606.377 1410.71,605.22 1412.99,604.195 1415.26,602.542 1417.54,601.187 1419.82,599.798 1422.09,598.707 1424.37,597.781 1426.65,596.955 
  1428.92,596.129 1431.2,594.608 1433.48,593.748 1435.75,592.062 1438.03,590.905 1440.3,589.649 1442.58,588.624 1444.86,587.765 1447.13,586.74 1449.41,585.55 
  1451.69,584.756 1453.96,583.368 1456.24,582.574 1458.52,581.682 1460.79,580.954 1463.07,579.963 1465.35,579.334 1467.62,578.508 1469.9,577.516 1472.18,576.789 
  1474.45,576.227 1476.73,576.029 1479.01,575.169 1481.28,574.607 1483.56,573.88 1485.84,573.185 1488.11,572.822 1490.39,572.293 1492.67,571.896 1494.94,571.334 
  1497.22,570.772 1499.5,570.21 1501.77,569.88 1504.05,569.384 1506.33,568.59 1508.6,568.16 1510.88,567.797 1513.16,567.499 1515.43,567.103 1517.71,566.706 
  1519.99,566.541 1522.26,566.309 1524.54,566.111 1526.81,565.648 1529.09,565.218 1531.37,564.788 1533.64,564.491 1535.92,563.863 1538.2,563.731 1540.47,563.4 
  1542.75,563.069 1545.03,562.904 1547.3,562.607 1549.58,562.011 1551.86,561.747 1554.13,561.648 1556.41,561.449 1558.69,561.284 1560.96,561.086 1563.24,561.02 
  1565.52,560.854 1567.79,560.557 1570.07,560.524 1572.35,560.458 1574.62,560.292 1576.9,560.193 1579.18,560.193 1581.45,559.929 1583.73,559.499 1586.01,559.367 
  1588.28,559.268 1590.56,559.135 1592.84,558.97 1595.11,558.672 1597.39,558.507 1599.67,558.309 1601.94,558.144 1604.22,558.11 1606.49,558.11 1608.77,557.912 
  1611.05,557.846 1613.32,557.615 1615.6,557.582 1617.88,557.548 1620.15,557.548 1622.43,557.218 1624.71,556.986 1626.98,556.887 1629.26,556.656 1631.54,556.491 
  1633.81,556.325 1636.09,556.193 1638.37,555.929 1640.64,555.697 1642.92,554.375 1645.2,554.077 1647.47,553.846 1649.75,553.747 1652.03,553.548 1654.3,552.755 
  1656.58,552.094 1658.86,551.664 1661.13,551.102 1663.41,550.639 1665.69,550.474 1667.96,550.375 1670.24,549.449 1672.52,548.986 1674.79,548.259 1677.07,547.664 
  1679.35,547.036 1681.62,546.87 1683.9,546.54 1686.17,546.275 1688.45,544.755 1690.73,543.664 1693,542.969 1695.28,541.978 1697.56,541.845 1699.83,541.35 
  1702.11,540.159 1704.39,539.432 1706.66,538.11 1708.94,537.349 1711.22,535.763 1713.49,535.498 1715.77,535.167 1718.05,533.845 1720.32,532.258 1722.6,530.671 
  1724.88,529.184 1727.15,528.093 1729.43,527.894 1731.71,527.597 1733.98,525.613 1736.26,523.894 1738.54,522.01 1740.81,520.754 1743.09,519.068 1745.37,518.473 
  1747.64,518.142 1749.92,516.456 1752.2,514.737 1754.47,513.117 1756.75,512.224 1759.03,510.935 1761.3,510.505 1763.58,510.274 1765.86,509.91 1768.13,507.365 
  1770.41,504.885 1772.68,503.166 1774.96,501.645 1777.24,501.216 1779.51,500.72 1781.79,498.373 1784.07,497.017 1786.34,495.761 1788.62,495.001 1790.9,493.281 
  1793.17,492.885 1795.45,492.686 1797.73,490.802 1800,489.777 1802.28,488.686 1804.56,487 1806.83,485.909 1809.11,485.612 1811.39,485.38 1813.66,483.43 
  1815.94,482.537 1818.22,481.413 1820.49,480.719 1822.77,480.025 1825.05,479.562 1827.32,479.099 1829.6,477.479 1831.88,476.62 1834.15,475.694 1836.43,474.934 
  1838.71,473.446 1840.98,473.016 1843.26,472.62 1845.54,470.967 1847.81,470.305 1850.09,469.677 1852.36,468.553 1854.64,467.892 1856.92,467.528 1859.19,467.297 
  1861.47,466.338 1863.75,465.38 1866.02,464.586 1868.3,463.826 1870.58,463.297 1872.85,462.834 1875.13,462.404 1877.41,461.049 1879.68,460.388 1881.96,459.33 
  1884.24,458.636 1886.51,457.908 1888.79,457.611 1891.07,457.379 1893.34,456.321 1895.62,455.561 1897.9,454.735 1900.17,453.974 1902.45,453.247 1904.73,452.817 
  1907,452.553 1909.28,451.66 1911.56,450.635 1913.83,450.007 1916.11,449.412 1918.39,448.652 1920.66,448.354 1922.94,448.024 1925.22,447.197 1927.49,446.404 
  1929.77,445.445 1932.05,444.618 1934.32,443.759 1936.6,443.362 1938.87,442.8 1941.15,441.478 1943.43,440.222 1945.7,438.436 1947.98,436.982 1950.26,435.097 
  1952.53,433.577 1954.81,431.891 1957.09,429.18 1959.36,426.667 1961.64,422.37 1963.92,419.097 1966.19,415.427 1968.47,413.311 1970.75,409.642 1973.02,404.452 
  1975.3,399.393 1977.58,393.84 1979.85,388.286 1982.13,382.269 1984.41,376.186 1986.68,373.508 1988.96,367.657 1991.24,361.904 1993.51,355.425 1995.79,349.408 
  1998.07,344.284 2000.34,339.953 2002.62,338.465 2004.9,333.011 2007.17,325.506 2009.45,323.622 2011.73,314.729 2014,310.365 2016.28,307.225 2018.55,306.068 
  2020.83,301.406 2023.11,296.91 2025.38,292.579 2027.66,288.414 2029.94,284.282 2032.21,282.232 2034.49,280.843 2036.77,276.645 2039.04,273.504 2041.32,270.099 
  2043.6,267.058 2045.87,263.818 2048.15,261.041 2050.43,260.248 2052.7,256.875 2054.98,253.867 2057.26,251.388 2059.53,249.206 2061.81,247.321 2064.09,246.792 
  2066.36,246.264 2068.64,245.933 2070.92,242.858 2073.19,240.114 2075.47,238.858 2077.75,235.453 2080.02,235.321 2082.3,234.66 2084.58,232.841 2086.85,232.246 
  2089.13,229.932 2091.41,227.651 2093.68,223.949 2095.96,222.593 2098.23,221.634 2100.51,219.816 2102.79,217.634 2105.06,215.684 2107.34,213.899 2109.62,213.799 
  2111.89,213.337 2114.17,213.171 2116.45,211.717 2118.72,221.205 2121,219.882 2123.28,218.56 2125.55,216.477 2127.83,215.783 2130.11,215.419 2132.38,214.13 
  2134.66,212.973 2136.94,211.584 2139.21,209.105 2141.49,207.683 2143.77,206.791 2146.04,206.493 2148.32,205.733 2150.6,204.609 2152.87,202.658 2155.15,200.939 
  2157.43,198.956 2159.7,198.162 2161.98,197.931 2164.26,197.501 2166.53,196.377 2168.81,194.956 2171.09,193.6 2173.36,193.6 2175.64,191.22 2177.92,191.22 
  2180.19,191.22 2182.47,191.22 2184.74,182.592 2187.02,178.36 2189.3,179.021 2191.57,176.509 2193.85,175.814 2196.13,174.757 2198.4,173.798 2200.68,170.426 
  2202.96,166.459 2205.23,162.987 2207.51,161.268 2209.79,160.442 2212.06,159.946 2214.34,158.194 2216.62,154.557 2218.89,150.161 2221.17,147.218 2223.45,146.094 
  2225.72,145.367 2228,145.235 2230.28,143.483 2232.55,138.92 2234.83,133.862 2237.11,131.152 2239.38,129.399 2241.66,129.069 2243.94,128.937 2246.21,126.953 
  2248.49,122.589 2250.77,117.465 2253.04,114.49 2255.32,113.829 2257.6,113.729 2259.87,113.531 2262.15,112.209 2264.42,109.002 2266.7,102.688 2268.98,99.7453 
  2271.25,99.0842 2273.53,98.8858 2275.81,98.8858 2278.08,98.7205 2280.36,95.646 2282.64,91.8773 2284.91,89.7615 2287.19,89.0011 2289.47,88.9019 2291.74,88.8689 
  2294.02,87.9763 
  "/>
<path clip-path="url(#clip040)" d="
M1566.32 198.898 L2283.58 198.898 L2283.58 95.2176 L1566.32 95.2176  Z
  " fill="#ffffff" fill-rule="evenodd" fill-opacity="1"/>
<polyline clip-path="url(#clip040)" style="stroke:#000000; stroke-linecap:butt; stroke-linejoin:round; stroke-width:4; stroke-opacity:1; fill:none" points="
  1566.32,198.898 2283.58,198.898 2283.58,95.2176 1566.32,95.2176 1566.32,198.898 
  "/>
<polyline clip-path="url(#clip040)" style="stroke:#009af9; stroke-linecap:butt; stroke-linejoin:round; stroke-width:4; stroke-opacity:1; fill:none" points="
  1589.38,147.058 1727.74,147.058 
  "/>
<path clip-path="url(#clip040)" d="M1772.51 148.689 L1772.51 164.338 L1768.25 164.338 L1768.25 148.828 Q1768.25 145.148 1766.81 143.319 Q1765.38 141.49 1762.51 141.49 Q1759.06 141.49 1757.07 143.69 Q1755.08 145.889 1755.08 149.685 L1755.08 164.338 L1750.8 164.338 L1750.8 138.412 L1755.08 138.412 L1755.08 142.44 Q1756.61 140.102 1758.67 138.944 Q1760.75 137.787 1763.46 137.787 Q1767.93 137.787 1770.22 140.565 Q1772.51 143.319 1772.51 148.689 Z" fill="#000000" fill-rule="evenodd" fill-opacity="1" /><path clip-path="url(#clip040)" d="M1780.56 154.106 L1780.56 138.412 L1784.82 138.412 L1784.82 153.944 Q1784.82 157.625 1786.26 159.476 Q1787.69 161.305 1790.56 161.305 Q1794.01 161.305 1796 159.106 Q1798.02 156.907 1798.02 153.111 L1798.02 138.412 L1802.28 138.412 L1802.28 164.338 L1798.02 164.338 L1798.02 160.356 Q1796.47 162.717 1794.41 163.875 Q1792.37 165.009 1789.66 165.009 Q1785.19 165.009 1782.88 162.231 Q1780.56 159.453 1780.56 154.106 M1791.28 137.787 L1791.28 137.787 Z" fill="#000000" fill-rule="evenodd" fill-opacity="1" /><path clip-path="url(#clip040)" d="M1831.24 143.389 Q1832.83 140.518 1835.05 139.153 Q1837.28 137.787 1840.29 137.787 Q1844.34 137.787 1846.54 140.634 Q1848.74 143.458 1848.74 148.689 L1848.74 164.338 L1844.45 164.338 L1844.45 148.828 Q1844.45 145.102 1843.13 143.296 Q1841.81 141.49 1839.11 141.49 Q1835.8 141.49 1833.87 143.69 Q1831.95 145.889 1831.95 149.685 L1831.95 164.338 L1827.67 164.338 L1827.67 148.828 Q1827.67 145.078 1826.35 143.296 Q1825.03 141.49 1822.28 141.49 Q1819.01 141.49 1817.09 143.713 Q1815.17 145.912 1815.17 149.685 L1815.17 164.338 L1810.89 164.338 L1810.89 138.412 L1815.17 138.412 L1815.17 142.44 Q1816.63 140.055 1818.67 138.921 Q1820.7 137.787 1823.5 137.787 Q1826.33 137.787 1828.3 139.222 Q1830.29 140.657 1831.24 143.389 Z" fill="#000000" fill-rule="evenodd" fill-opacity="1" /><path clip-path="url(#clip040)" d="M1875.84 151.398 Q1875.84 146.699 1873.9 144.037 Q1871.98 141.352 1868.6 141.352 Q1865.22 141.352 1863.27 144.037 Q1861.35 146.699 1861.35 151.398 Q1861.35 156.097 1863.27 158.782 Q1865.22 161.444 1868.6 161.444 Q1871.98 161.444 1873.9 158.782 Q1875.84 156.097 1875.84 151.398 M1861.35 142.347 Q1862.69 140.032 1864.73 138.921 Q1866.79 137.787 1869.64 137.787 Q1874.36 137.787 1877.3 141.537 Q1880.26 145.287 1880.26 151.398 Q1880.26 157.509 1877.3 161.259 Q1874.36 165.009 1869.64 165.009 Q1866.79 165.009 1864.73 163.898 Q1862.69 162.763 1861.35 160.449 L1861.35 164.338 L1857.07 164.338 L1857.07 128.319 L1861.35 128.319 L1861.35 142.347 Z" fill="#000000" fill-rule="evenodd" fill-opacity="1" /><path clip-path="url(#clip040)" d="M1909.5 150.31 L1909.5 152.393 L1889.92 152.393 Q1890.19 156.791 1892.55 159.106 Q1894.94 161.398 1899.17 161.398 Q1901.63 161.398 1903.92 160.796 Q1906.23 160.194 1908.5 158.99 L1908.5 163.018 Q1906.21 163.99 1903.8 164.5 Q1901.4 165.009 1898.92 165.009 Q1892.72 165.009 1889.08 161.398 Q1885.47 157.787 1885.47 151.629 Q1885.47 145.264 1888.9 141.537 Q1892.35 137.787 1898.18 137.787 Q1903.41 137.787 1906.44 141.166 Q1909.5 144.523 1909.5 150.31 M1905.24 149.06 Q1905.19 145.565 1903.27 143.481 Q1901.37 141.398 1898.23 141.398 Q1894.66 141.398 1892.51 143.412 Q1890.38 145.426 1890.05 149.083 L1905.24 149.06 Z" fill="#000000" fill-rule="evenodd" fill-opacity="1" /><path clip-path="url(#clip040)" d="M1931.51 142.393 Q1930.8 141.977 1929.94 141.791 Q1929.11 141.583 1928.09 141.583 Q1924.48 141.583 1922.53 143.944 Q1920.61 146.282 1920.61 150.68 L1920.61 164.338 L1916.33 164.338 L1916.33 138.412 L1920.61 138.412 L1920.61 142.44 Q1921.95 140.078 1924.11 138.944 Q1926.26 137.787 1929.34 137.787 Q1929.78 137.787 1930.31 137.856 Q1930.84 137.903 1931.49 138.018 L1931.51 142.393 Z" fill="#000000" fill-rule="evenodd" fill-opacity="1" /><path clip-path="url(#clip040)" d="M1955.68 172.208 L1955.68 175.518 L1931.05 175.518 L1931.05 172.208 L1955.68 172.208 Z" fill="#000000" fill-rule="evenodd" fill-opacity="1" /><path clip-path="url(#clip040)" d="M1976.74 142.347 L1976.74 128.319 L1981 128.319 L1981 164.338 L1976.74 164.338 L1976.74 160.449 Q1975.4 162.763 1973.34 163.898 Q1971.3 165.009 1968.43 165.009 Q1963.73 165.009 1960.77 161.259 Q1957.83 157.509 1957.83 151.398 Q1957.83 145.287 1960.77 141.537 Q1963.73 137.787 1968.43 137.787 Q1971.3 137.787 1973.34 138.921 Q1975.4 140.032 1976.74 142.347 M1962.23 151.398 Q1962.23 156.097 1964.15 158.782 Q1966.1 161.444 1969.48 161.444 Q1972.86 161.444 1974.8 158.782 Q1976.74 156.097 1976.74 151.398 Q1976.74 146.699 1974.8 144.037 Q1972.86 141.352 1969.48 141.352 Q1966.1 141.352 1964.15 144.037 Q1962.23 146.699 1962.23 151.398 Z" fill="#000000" fill-rule="evenodd" fill-opacity="1" /><path clip-path="url(#clip040)" d="M2011.95 150.31 L2011.95 152.393 L1992.37 152.393 Q1992.65 156.791 1995.01 159.106 Q1997.39 161.398 2001.63 161.398 Q2004.08 161.398 2006.37 160.796 Q2008.69 160.194 2010.96 158.99 L2010.96 163.018 Q2008.67 163.99 2006.26 164.5 Q2003.85 165.009 2001.37 165.009 Q1995.17 165.009 1991.54 161.398 Q1987.92 157.787 1987.92 151.629 Q1987.92 145.264 1991.35 141.537 Q1994.8 137.787 2000.63 137.787 Q2005.86 137.787 2008.9 141.166 Q2011.95 144.523 2011.95 150.31 M2007.69 149.06 Q2007.65 145.565 2005.73 143.481 Q2003.83 141.398 2000.68 141.398 Q1997.11 141.398 1994.96 143.412 Q1992.83 145.426 1992.51 149.083 L2007.69 149.06 Z" fill="#000000" fill-rule="evenodd" fill-opacity="1" /><path clip-path="url(#clip040)" d="M2030.73 151.305 Q2025.56 151.305 2023.57 152.486 Q2021.58 153.666 2021.58 156.514 Q2021.58 158.782 2023.06 160.125 Q2024.57 161.444 2027.14 161.444 Q2030.68 161.444 2032.81 158.944 Q2034.96 156.421 2034.96 152.254 L2034.96 151.305 L2030.73 151.305 M2039.22 149.546 L2039.22 164.338 L2034.96 164.338 L2034.96 160.402 Q2033.5 162.763 2031.33 163.898 Q2029.15 165.009 2026 165.009 Q2022.02 165.009 2019.66 162.787 Q2017.32 160.541 2017.32 156.791 Q2017.32 152.416 2020.24 150.194 Q2023.18 147.972 2028.99 147.972 L2034.96 147.972 L2034.96 147.555 Q2034.96 144.615 2033.02 143.018 Q2031.1 141.398 2027.6 141.398 Q2025.38 141.398 2023.27 141.93 Q2021.16 142.463 2019.22 143.527 L2019.22 139.592 Q2021.56 138.69 2023.76 138.25 Q2025.96 137.787 2028.04 137.787 Q2033.66 137.787 2036.44 140.703 Q2039.22 143.62 2039.22 149.546 Z" fill="#000000" fill-rule="evenodd" fill-opacity="1" /><path clip-path="url(#clip040)" d="M2052.21 131.051 L2052.21 138.412 L2060.98 138.412 L2060.98 141.722 L2052.21 141.722 L2052.21 155.796 Q2052.21 158.967 2053.06 159.87 Q2053.94 160.773 2056.6 160.773 L2060.98 160.773 L2060.98 164.338 L2056.6 164.338 Q2051.67 164.338 2049.8 162.509 Q2047.92 160.657 2047.92 155.796 L2047.92 141.722 L2044.8 141.722 L2044.8 138.412 L2047.92 138.412 L2047.92 131.051 L2052.21 131.051 Z" fill="#000000" fill-rule="evenodd" fill-opacity="1" /><path clip-path="url(#clip040)" d="M2088.13 148.689 L2088.13 164.338 L2083.87 164.338 L2083.87 148.828 Q2083.87 145.148 2082.44 143.319 Q2081 141.49 2078.13 141.49 Q2074.68 141.49 2072.69 143.69 Q2070.7 145.889 2070.7 149.685 L2070.7 164.338 L2066.42 164.338 L2066.42 128.319 L2070.7 128.319 L2070.7 142.44 Q2072.23 140.102 2074.29 138.944 Q2076.37 137.787 2079.08 137.787 Q2083.55 137.787 2085.84 140.565 Q2088.13 143.319 2088.13 148.689 Z" fill="#000000" fill-rule="evenodd" fill-opacity="1" /><path clip-path="url(#clip040)" d="M2113.16 139.176 L2113.16 143.203 Q2111.35 142.277 2109.41 141.815 Q2107.46 141.352 2105.38 141.352 Q2102.21 141.352 2100.61 142.324 Q2099.03 143.296 2099.03 145.24 Q2099.03 146.722 2100.17 147.578 Q2101.3 148.412 2104.73 149.176 L2106.19 149.5 Q2110.72 150.472 2112.62 152.254 Q2114.54 154.014 2114.54 157.185 Q2114.54 160.796 2111.67 162.902 Q2108.83 165.009 2103.83 165.009 Q2101.74 165.009 2099.47 164.592 Q2097.23 164.199 2094.73 163.388 L2094.73 158.99 Q2097.09 160.217 2099.38 160.842 Q2101.67 161.444 2103.92 161.444 Q2106.93 161.444 2108.55 160.426 Q2110.17 159.384 2110.17 157.509 Q2110.17 155.773 2108.99 154.847 Q2107.83 153.921 2103.87 153.064 L2102.39 152.717 Q2098.43 151.884 2096.67 150.171 Q2094.91 148.435 2094.91 145.426 Q2094.91 141.768 2097.51 139.778 Q2100.1 137.787 2104.87 137.787 Q2107.23 137.787 2109.31 138.134 Q2111.4 138.481 2113.16 139.176 Z" fill="#000000" fill-rule="evenodd" fill-opacity="1" /><path clip-path="url(#clip040)" d="M2141.03 172.208 L2141.03 175.518 L2116.4 175.518 L2116.4 172.208 L2141.03 172.208 Z" fill="#000000" fill-rule="evenodd" fill-opacity="1" /><path clip-path="url(#clip040)" d="M2161.56 139.176 L2161.56 143.203 Q2159.75 142.277 2157.81 141.815 Q2155.86 141.352 2153.78 141.352 Q2150.61 141.352 2149.01 142.324 Q2147.44 143.296 2147.44 145.24 Q2147.44 146.722 2148.57 147.578 Q2149.71 148.412 2153.13 149.176 L2154.59 149.5 Q2159.13 150.472 2161.03 152.254 Q2162.95 154.014 2162.95 157.185 Q2162.95 160.796 2160.08 162.902 Q2157.23 165.009 2152.23 165.009 Q2150.15 165.009 2147.88 164.592 Q2145.63 164.199 2143.13 163.388 L2143.13 158.99 Q2145.49 160.217 2147.78 160.842 Q2150.08 161.444 2152.32 161.444 Q2155.33 161.444 2156.95 160.426 Q2158.57 159.384 2158.57 157.509 Q2158.57 155.773 2157.39 154.847 Q2156.23 153.921 2152.28 153.064 L2150.79 152.717 Q2146.84 151.884 2145.08 150.171 Q2143.32 148.435 2143.32 145.426 Q2143.32 141.768 2145.91 139.778 Q2148.5 137.787 2153.27 137.787 Q2155.63 137.787 2157.72 138.134 Q2159.8 138.481 2161.56 139.176 Z" fill="#000000" fill-rule="evenodd" fill-opacity="1" /><path clip-path="url(#clip040)" d="M2169.29 154.106 L2169.29 138.412 L2173.55 138.412 L2173.55 153.944 Q2173.55 157.625 2174.98 159.476 Q2176.42 161.305 2179.29 161.305 Q2182.74 161.305 2184.73 159.106 Q2186.74 156.907 2186.74 153.111 L2186.74 138.412 L2191 138.412 L2191 164.338 L2186.74 164.338 L2186.74 160.356 Q2185.19 162.717 2183.13 163.875 Q2181.09 165.009 2178.39 165.009 Q2173.92 165.009 2171.6 162.231 Q2169.29 159.453 2169.29 154.106 M2180.01 137.787 L2180.01 137.787 Z" fill="#000000" fill-rule="evenodd" fill-opacity="1" /><path clip-path="url(#clip040)" d="M2219.96 143.389 Q2221.56 140.518 2223.78 139.153 Q2226 137.787 2229.01 137.787 Q2233.06 137.787 2235.26 140.634 Q2237.46 143.458 2237.46 148.689 L2237.46 164.338 L2233.18 164.338 L2233.18 148.828 Q2233.18 145.102 2231.86 143.296 Q2230.54 141.49 2227.83 141.49 Q2224.52 141.49 2222.6 143.69 Q2220.68 145.889 2220.68 149.685 L2220.68 164.338 L2216.4 164.338 L2216.4 148.828 Q2216.4 145.078 2215.08 143.296 Q2213.76 141.49 2211 141.49 Q2207.74 141.49 2205.82 143.713 Q2203.9 145.912 2203.9 149.685 L2203.9 164.338 L2199.61 164.338 L2199.61 138.412 L2203.9 138.412 L2203.9 142.44 Q2205.35 140.055 2207.39 138.921 Q2209.43 137.787 2212.23 137.787 Q2215.05 137.787 2217.02 139.222 Q2219.01 140.657 2219.96 143.389 Z" fill="#000000" fill-rule="evenodd" fill-opacity="1" /></svg>
