<?xml version="1.0" encoding="utf-8"?>
<svg xmlns="http://www.w3.org/2000/svg" xmlns:xlink="http://www.w3.org/1999/xlink" width="600" height="400" viewBox="0 0 2400 1600">
<defs>
  <clipPath id="clip080">
    <rect x="0" y="0" width="2400" height="1600"/>
  </clipPath>
</defs>
<path clip-path="url(#clip080)" d="
M0 1600 L2400 1600 L2400 0 L0 0  Z
  " fill="#ffffff" fill-rule="evenodd" fill-opacity="1"/>
<defs>
  <clipPath id="clip081">
    <rect x="480" y="0" width="1681" height="1600"/>
  </clipPath>
</defs>
<path clip-path="url(#clip080)" d="
M277.431 1486.45 L2352.76 1486.45 L2352.76 123.472 L277.431 123.472  Z
  " fill="#ffffff" fill-rule="evenodd" fill-opacity="1"/>
<defs>
  <clipPath id="clip082">
    <rect x="277" y="123" width="2076" height="1364"/>
  </clipPath>
</defs>
<polyline clip-path="url(#clip082)" style="stroke:#000000; stroke-linecap:butt; stroke-linejoin:round; stroke-width:2; stroke-opacity:0.1; fill:none" points="
  288.358,1486.45 288.358,123.472 
  "/>
<polyline clip-path="url(#clip082)" style="stroke:#000000; stroke-linecap:butt; stroke-linejoin:round; stroke-width:2; stroke-opacity:0.1; fill:none" points="
  1121.58,1486.45 1121.58,123.472 
  "/>
<polyline clip-path="url(#clip082)" style="stroke:#000000; stroke-linecap:butt; stroke-linejoin:round; stroke-width:2; stroke-opacity:0.1; fill:none" points="
  1952.53,1486.45 1952.53,123.472 
  "/>
<polyline clip-path="url(#clip080)" style="stroke:#000000; stroke-linecap:butt; stroke-linejoin:round; stroke-width:4; stroke-opacity:1; fill:none" points="
  277.431,1486.45 2352.76,1486.45 
  "/>
<polyline clip-path="url(#clip080)" style="stroke:#000000; stroke-linecap:butt; stroke-linejoin:round; stroke-width:4; stroke-opacity:1; fill:none" points="
  288.358,1486.45 288.358,1467.55 
  "/>
<polyline clip-path="url(#clip080)" style="stroke:#000000; stroke-linecap:butt; stroke-linejoin:round; stroke-width:4; stroke-opacity:1; fill:none" points="
  1121.58,1486.45 1121.58,1467.55 
  "/>
<polyline clip-path="url(#clip080)" style="stroke:#000000; stroke-linecap:butt; stroke-linejoin:round; stroke-width:4; stroke-opacity:1; fill:none" points="
  1952.53,1486.45 1952.53,1467.55 
  "/>
<path clip-path="url(#clip080)" d="M160.153 1544.91 L176.473 1544.91 L176.473 1548.85 L154.528 1548.85 L154.528 1544.91 Q157.19 1542.16 161.774 1537.53 Q166.38 1532.88 167.561 1531.53 Q169.806 1529.01 170.685 1527.27 Q171.588 1525.51 171.588 1523.82 Q171.588 1521.07 169.644 1519.33 Q167.723 1517.6 164.621 1517.6 Q162.422 1517.6 159.968 1518.36 Q157.537 1519.13 154.76 1520.68 L154.76 1515.95 Q157.584 1514.82 160.037 1514.24 Q162.491 1513.66 164.528 1513.66 Q169.898 1513.66 173.093 1516.35 Q176.287 1519.03 176.287 1523.52 Q176.287 1525.65 175.477 1527.57 Q174.69 1529.47 172.584 1532.07 Q172.005 1532.74 168.903 1535.95 Q165.801 1539.15 160.153 1544.91 Z" fill="#000000" fill-rule="evenodd" fill-opacity="1" /><path clip-path="url(#clip080)" d="M196.287 1517.37 Q192.676 1517.37 190.847 1520.93 Q189.042 1524.47 189.042 1531.6 Q189.042 1538.71 190.847 1542.27 Q192.676 1545.82 196.287 1545.82 Q199.921 1545.82 201.727 1542.27 Q203.556 1538.71 203.556 1531.6 Q203.556 1524.47 201.727 1520.93 Q199.921 1517.37 196.287 1517.37 M196.287 1513.66 Q202.097 1513.66 205.153 1518.27 Q208.232 1522.85 208.232 1531.6 Q208.232 1540.33 205.153 1544.94 Q202.097 1549.52 196.287 1549.52 Q190.477 1549.52 187.398 1544.94 Q184.343 1540.33 184.343 1531.6 Q184.343 1522.85 187.398 1518.27 Q190.477 1513.66 196.287 1513.66 Z" fill="#000000" fill-rule="evenodd" fill-opacity="1" /><path clip-path="url(#clip080)" d="M220.477 1544.91 L236.796 1544.91 L236.796 1548.85 L214.852 1548.85 L214.852 1544.91 Q217.514 1542.16 222.097 1537.53 Q226.704 1532.88 227.884 1531.53 Q230.13 1529.01 231.009 1527.27 Q231.912 1525.51 231.912 1523.82 Q231.912 1521.07 229.968 1519.33 Q228.046 1517.6 224.944 1517.6 Q222.745 1517.6 220.292 1518.36 Q217.861 1519.13 215.083 1520.68 L215.083 1515.95 Q217.907 1514.82 220.361 1514.24 Q222.815 1513.66 224.852 1513.66 Q230.222 1513.66 233.417 1516.35 Q236.611 1519.03 236.611 1523.52 Q236.611 1525.65 235.801 1527.57 Q235.014 1529.47 232.907 1532.07 Q232.329 1532.74 229.227 1535.95 Q226.125 1539.15 220.477 1544.91 Z" fill="#000000" fill-rule="evenodd" fill-opacity="1" /><path clip-path="url(#clip080)" d="M256.611 1517.37 Q253 1517.37 251.171 1520.93 Q249.366 1524.47 249.366 1531.6 Q249.366 1538.71 251.171 1542.27 Q253 1545.82 256.611 1545.82 Q260.245 1545.82 262.051 1542.27 Q263.879 1538.71 263.879 1531.6 Q263.879 1524.47 262.051 1520.93 Q260.245 1517.37 256.611 1517.37 M256.611 1513.66 Q262.421 1513.66 265.477 1518.27 Q268.555 1522.85 268.555 1531.6 Q268.555 1540.33 265.477 1544.94 Q262.421 1549.52 256.611 1549.52 Q250.801 1549.52 247.722 1544.94 Q244.667 1540.33 244.667 1531.6 Q244.667 1522.85 247.722 1518.27 Q250.801 1513.66 256.611 1513.66 Z" fill="#000000" fill-rule="evenodd" fill-opacity="1" /><path clip-path="url(#clip080)" d="M274.018 1533.96 L286.495 1533.96 L286.495 1537.76 L274.018 1537.76 L274.018 1533.96 Z" fill="#000000" fill-rule="evenodd" fill-opacity="1" /><path clip-path="url(#clip080)" d="M303.879 1517.37 Q300.268 1517.37 298.439 1520.93 Q296.634 1524.47 296.634 1531.6 Q296.634 1538.71 298.439 1542.27 Q300.268 1545.82 303.879 1545.82 Q307.513 1545.82 309.319 1542.27 Q311.148 1538.71 311.148 1531.6 Q311.148 1524.47 309.319 1520.93 Q307.513 1517.37 303.879 1517.37 M303.879 1513.66 Q309.689 1513.66 312.745 1518.27 Q315.824 1522.85 315.824 1531.6 Q315.824 1540.33 312.745 1544.94 Q309.689 1549.52 303.879 1549.52 Q298.069 1549.52 294.99 1544.94 Q291.935 1540.33 291.935 1531.6 Q291.935 1522.85 294.99 1518.27 Q298.069 1513.66 303.879 1513.66 Z" fill="#000000" fill-rule="evenodd" fill-opacity="1" /><path clip-path="url(#clip080)" d="M324.851 1544.91 L332.49 1544.91 L332.49 1518.55 L324.18 1520.21 L324.18 1515.95 L332.444 1514.29 L337.12 1514.29 L337.12 1544.91 L344.759 1544.91 L344.759 1548.85 L324.851 1548.85 L324.851 1544.91 Z" fill="#000000" fill-rule="evenodd" fill-opacity="1" /><path clip-path="url(#clip080)" d="M351.448 1533.96 L363.925 1533.96 L363.925 1537.76 L351.448 1537.76 L351.448 1533.96 Z" fill="#000000" fill-rule="evenodd" fill-opacity="1" /><path clip-path="url(#clip080)" d="M381.309 1517.37 Q377.698 1517.37 375.87 1520.93 Q374.064 1524.47 374.064 1531.6 Q374.064 1538.71 375.87 1542.27 Q377.698 1545.82 381.309 1545.82 Q384.944 1545.82 386.749 1542.27 Q388.578 1538.71 388.578 1531.6 Q388.578 1524.47 386.749 1520.93 Q384.944 1517.37 381.309 1517.37 M381.309 1513.66 Q387.12 1513.66 390.175 1518.27 Q393.254 1522.85 393.254 1531.6 Q393.254 1540.33 390.175 1544.94 Q387.12 1549.52 381.309 1549.52 Q375.499 1549.52 372.421 1544.94 Q369.365 1540.33 369.365 1531.6 Q369.365 1522.85 372.421 1518.27 Q375.499 1513.66 381.309 1513.66 Z" fill="#000000" fill-rule="evenodd" fill-opacity="1" /><path clip-path="url(#clip080)" d="M402.281 1544.91 L409.92 1544.91 L409.92 1518.55 L401.61 1520.21 L401.61 1515.95 L409.874 1514.29 L414.55 1514.29 L414.55 1544.91 L422.189 1544.91 L422.189 1548.85 L402.281 1548.85 L402.281 1544.91 Z" fill="#000000" fill-rule="evenodd" fill-opacity="1" /><path clip-path="url(#clip080)" d="M993.379 1544.91 L1009.7 1544.91 L1009.7 1548.85 L987.754 1548.85 L987.754 1544.91 Q990.416 1542.16 995 1537.53 Q999.606 1532.88 1000.79 1531.53 Q1003.03 1529.01 1003.91 1527.27 Q1004.81 1525.51 1004.81 1523.82 Q1004.81 1521.07 1002.87 1519.33 Q1000.95 1517.6 997.847 1517.6 Q995.648 1517.6 993.194 1518.36 Q990.764 1519.13 987.986 1520.68 L987.986 1515.95 Q990.81 1514.82 993.264 1514.24 Q995.717 1513.66 997.754 1513.66 Q1003.12 1513.66 1006.32 1516.35 Q1009.51 1519.03 1009.51 1523.52 Q1009.51 1525.65 1008.7 1527.57 Q1007.92 1529.47 1005.81 1532.07 Q1005.23 1532.74 1002.13 1535.95 Q999.027 1539.15 993.379 1544.91 Z" fill="#000000" fill-rule="evenodd" fill-opacity="1" /><path clip-path="url(#clip080)" d="M1029.51 1517.37 Q1025.9 1517.37 1024.07 1520.93 Q1022.27 1524.47 1022.27 1531.6 Q1022.27 1538.71 1024.07 1542.27 Q1025.9 1545.82 1029.51 1545.82 Q1033.15 1545.82 1034.95 1542.27 Q1036.78 1538.71 1036.78 1531.6 Q1036.78 1524.47 1034.95 1520.93 Q1033.15 1517.37 1029.51 1517.37 M1029.51 1513.66 Q1035.32 1513.66 1038.38 1518.27 Q1041.46 1522.85 1041.46 1531.6 Q1041.46 1540.33 1038.38 1544.94 Q1035.32 1549.52 1029.51 1549.52 Q1023.7 1549.52 1020.62 1544.94 Q1017.57 1540.33 1017.57 1531.6 Q1017.57 1522.85 1020.62 1518.27 Q1023.7 1513.66 1029.51 1513.66 Z" fill="#000000" fill-rule="evenodd" fill-opacity="1" /><path clip-path="url(#clip080)" d="M1053.7 1544.91 L1070.02 1544.91 L1070.02 1548.85 L1048.08 1548.85 L1048.08 1544.91 Q1050.74 1542.16 1055.32 1537.53 Q1059.93 1532.88 1061.11 1531.53 Q1063.36 1529.01 1064.24 1527.27 Q1065.14 1525.51 1065.14 1523.82 Q1065.14 1521.07 1063.19 1519.33 Q1061.27 1517.6 1058.17 1517.6 Q1055.97 1517.6 1053.52 1518.36 Q1051.09 1519.13 1048.31 1520.68 L1048.31 1515.95 Q1051.13 1514.82 1053.59 1514.24 Q1056.04 1513.66 1058.08 1513.66 Q1063.45 1513.66 1066.64 1516.35 Q1069.84 1519.03 1069.84 1523.52 Q1069.84 1525.65 1069.03 1527.57 Q1068.24 1529.47 1066.13 1532.07 Q1065.55 1532.74 1062.45 1535.95 Q1059.35 1539.15 1053.7 1544.91 Z" fill="#000000" fill-rule="evenodd" fill-opacity="1" /><path clip-path="url(#clip080)" d="M1080.65 1544.91 L1088.29 1544.91 L1088.29 1518.55 L1079.98 1520.21 L1079.98 1515.95 L1088.24 1514.29 L1092.92 1514.29 L1092.92 1544.91 L1100.55 1544.91 L1100.55 1548.85 L1080.65 1548.85 L1080.65 1544.91 Z" fill="#000000" fill-rule="evenodd" fill-opacity="1" /><path clip-path="url(#clip080)" d="M1107.24 1533.96 L1119.72 1533.96 L1119.72 1537.76 L1107.24 1537.76 L1107.24 1533.96 Z" fill="#000000" fill-rule="evenodd" fill-opacity="1" /><path clip-path="url(#clip080)" d="M1137.11 1517.37 Q1133.49 1517.37 1131.67 1520.93 Q1129.86 1524.47 1129.86 1531.6 Q1129.86 1538.71 1131.67 1542.27 Q1133.49 1545.82 1137.11 1545.82 Q1140.74 1545.82 1142.55 1542.27 Q1144.37 1538.71 1144.37 1531.6 Q1144.37 1524.47 1142.55 1520.93 Q1140.74 1517.37 1137.11 1517.37 M1137.11 1513.66 Q1142.92 1513.66 1145.97 1518.27 Q1149.05 1522.85 1149.05 1531.6 Q1149.05 1540.33 1145.97 1544.94 Q1142.92 1549.52 1137.11 1549.52 Q1131.3 1549.52 1128.22 1544.94 Q1125.16 1540.33 1125.16 1531.6 Q1125.16 1522.85 1128.22 1518.27 Q1131.3 1513.66 1137.11 1513.66 Z" fill="#000000" fill-rule="evenodd" fill-opacity="1" /><path clip-path="url(#clip080)" d="M1158.08 1544.91 L1165.72 1544.91 L1165.72 1518.55 L1157.41 1520.21 L1157.41 1515.95 L1165.67 1514.29 L1170.35 1514.29 L1170.35 1544.91 L1177.98 1544.91 L1177.98 1548.85 L1158.08 1548.85 L1158.08 1544.91 Z" fill="#000000" fill-rule="evenodd" fill-opacity="1" /><path clip-path="url(#clip080)" d="M1184.67 1533.96 L1197.15 1533.96 L1197.15 1537.76 L1184.67 1537.76 L1184.67 1533.96 Z" fill="#000000" fill-rule="evenodd" fill-opacity="1" /><path clip-path="url(#clip080)" d="M1214.54 1517.37 Q1210.92 1517.37 1209.1 1520.93 Q1207.29 1524.47 1207.29 1531.6 Q1207.29 1538.71 1209.1 1542.27 Q1210.92 1545.82 1214.54 1545.82 Q1218.17 1545.82 1219.98 1542.27 Q1221.8 1538.71 1221.8 1531.6 Q1221.8 1524.47 1219.98 1520.93 Q1218.17 1517.37 1214.54 1517.37 M1214.54 1513.66 Q1220.35 1513.66 1223.4 1518.27 Q1226.48 1522.85 1226.48 1531.6 Q1226.48 1540.33 1223.4 1544.94 Q1220.35 1549.52 1214.54 1549.52 Q1208.73 1549.52 1205.65 1544.94 Q1202.59 1540.33 1202.59 1531.6 Q1202.59 1522.85 1205.65 1518.27 Q1208.73 1513.66 1214.54 1513.66 Z" fill="#000000" fill-rule="evenodd" fill-opacity="1" /><path clip-path="url(#clip080)" d="M1235.51 1544.91 L1243.15 1544.91 L1243.15 1518.55 L1234.84 1520.21 L1234.84 1515.95 L1243.1 1514.29 L1247.78 1514.29 L1247.78 1544.91 L1255.41 1544.91 L1255.41 1548.85 L1235.51 1548.85 L1235.51 1544.91 Z" fill="#000000" fill-rule="evenodd" fill-opacity="1" /><path clip-path="url(#clip080)" d="M1824.33 1544.91 L1840.65 1544.91 L1840.65 1548.85 L1818.7 1548.85 L1818.7 1544.91 Q1821.37 1542.16 1825.95 1537.53 Q1830.56 1532.88 1831.74 1531.53 Q1833.98 1529.01 1834.86 1527.27 Q1835.76 1525.51 1835.76 1523.82 Q1835.76 1521.07 1833.82 1519.33 Q1831.9 1517.6 1828.8 1517.6 Q1826.6 1517.6 1824.14 1518.36 Q1821.71 1519.13 1818.94 1520.68 L1818.94 1515.95 Q1821.76 1514.82 1824.21 1514.24 Q1826.67 1513.66 1828.7 1513.66 Q1834.07 1513.66 1837.27 1516.35 Q1840.46 1519.03 1840.46 1523.52 Q1840.46 1525.65 1839.65 1527.57 Q1838.87 1529.47 1836.76 1532.07 Q1836.18 1532.74 1833.08 1535.95 Q1829.98 1539.15 1824.33 1544.91 Z" fill="#000000" fill-rule="evenodd" fill-opacity="1" /><path clip-path="url(#clip080)" d="M1860.46 1517.37 Q1856.85 1517.37 1855.02 1520.93 Q1853.22 1524.47 1853.22 1531.6 Q1853.22 1538.71 1855.02 1542.27 Q1856.85 1545.82 1860.46 1545.82 Q1864.1 1545.82 1865.9 1542.27 Q1867.73 1538.71 1867.73 1531.6 Q1867.73 1524.47 1865.9 1520.93 Q1864.1 1517.37 1860.46 1517.37 M1860.46 1513.66 Q1866.27 1513.66 1869.33 1518.27 Q1872.41 1522.85 1872.41 1531.6 Q1872.41 1540.33 1869.33 1544.94 Q1866.27 1549.52 1860.46 1549.52 Q1854.65 1549.52 1851.57 1544.94 Q1848.52 1540.33 1848.52 1531.6 Q1848.52 1522.85 1851.57 1518.27 Q1854.65 1513.66 1860.46 1513.66 Z" fill="#000000" fill-rule="evenodd" fill-opacity="1" /><path clip-path="url(#clip080)" d="M1884.65 1544.91 L1900.97 1544.91 L1900.97 1548.85 L1879.03 1548.85 L1879.03 1544.91 Q1881.69 1542.16 1886.27 1537.53 Q1890.88 1532.88 1892.06 1531.53 Q1894.31 1529.01 1895.18 1527.27 Q1896.09 1525.51 1896.09 1523.82 Q1896.09 1521.07 1894.14 1519.33 Q1892.22 1517.6 1889.12 1517.6 Q1886.92 1517.6 1884.47 1518.36 Q1882.04 1519.13 1879.26 1520.68 L1879.26 1515.95 Q1882.08 1514.82 1884.54 1514.24 Q1886.99 1513.66 1889.03 1513.66 Q1894.4 1513.66 1897.59 1516.35 Q1900.79 1519.03 1900.79 1523.52 Q1900.79 1525.65 1899.98 1527.57 Q1899.19 1529.47 1897.08 1532.07 Q1896.5 1532.74 1893.4 1535.95 Q1890.3 1539.15 1884.65 1544.91 Z" fill="#000000" fill-rule="evenodd" fill-opacity="1" /><path clip-path="url(#clip080)" d="M1914.81 1544.91 L1931.13 1544.91 L1931.13 1548.85 L1909.19 1548.85 L1909.19 1544.91 Q1911.85 1542.16 1916.43 1537.53 Q1921.04 1532.88 1922.22 1531.53 Q1924.47 1529.01 1925.35 1527.27 Q1926.25 1525.51 1926.25 1523.82 Q1926.25 1521.07 1924.31 1519.33 Q1922.38 1517.6 1919.28 1517.6 Q1917.08 1517.6 1914.63 1518.36 Q1912.2 1519.13 1909.42 1520.68 L1909.42 1515.95 Q1912.25 1514.82 1914.7 1514.24 Q1917.15 1513.66 1919.19 1513.66 Q1924.56 1513.66 1927.75 1516.35 Q1930.95 1519.03 1930.95 1523.52 Q1930.95 1525.65 1930.14 1527.57 Q1929.35 1529.47 1927.24 1532.07 Q1926.67 1532.74 1923.56 1535.95 Q1920.46 1539.15 1914.81 1544.91 Z" fill="#000000" fill-rule="evenodd" fill-opacity="1" /><path clip-path="url(#clip080)" d="M1938.19 1533.96 L1950.67 1533.96 L1950.67 1537.76 L1938.19 1537.76 L1938.19 1533.96 Z" fill="#000000" fill-rule="evenodd" fill-opacity="1" /><path clip-path="url(#clip080)" d="M1968.05 1517.37 Q1964.44 1517.37 1962.62 1520.93 Q1960.81 1524.47 1960.81 1531.6 Q1960.81 1538.71 1962.62 1542.27 Q1964.44 1545.82 1968.05 1545.82 Q1971.69 1545.82 1973.49 1542.27 Q1975.32 1538.71 1975.32 1531.6 Q1975.32 1524.47 1973.49 1520.93 Q1971.69 1517.37 1968.05 1517.37 M1968.05 1513.66 Q1973.87 1513.66 1976.92 1518.27 Q1980 1522.85 1980 1531.6 Q1980 1540.33 1976.92 1544.94 Q1973.87 1549.52 1968.05 1549.52 Q1962.24 1549.52 1959.17 1544.94 Q1956.11 1540.33 1956.11 1531.6 Q1956.11 1522.85 1959.17 1518.27 Q1962.24 1513.66 1968.05 1513.66 Z" fill="#000000" fill-rule="evenodd" fill-opacity="1" /><path clip-path="url(#clip080)" d="M1989.03 1544.91 L1996.67 1544.91 L1996.67 1518.55 L1988.36 1520.21 L1988.36 1515.95 L1996.62 1514.29 L2001.3 1514.29 L2001.3 1544.91 L2008.93 1544.91 L2008.93 1548.85 L1989.03 1548.85 L1989.03 1544.91 Z" fill="#000000" fill-rule="evenodd" fill-opacity="1" /><path clip-path="url(#clip080)" d="M2015.62 1533.96 L2028.1 1533.96 L2028.1 1537.76 L2015.62 1537.76 L2015.62 1533.96 Z" fill="#000000" fill-rule="evenodd" fill-opacity="1" /><path clip-path="url(#clip080)" d="M2045.49 1517.37 Q2041.87 1517.37 2040.05 1520.93 Q2038.24 1524.47 2038.24 1531.6 Q2038.24 1538.71 2040.05 1542.27 Q2041.87 1545.82 2045.49 1545.82 Q2049.12 1545.82 2050.92 1542.27 Q2052.75 1538.71 2052.75 1531.6 Q2052.75 1524.47 2050.92 1520.93 Q2049.12 1517.37 2045.49 1517.37 M2045.49 1513.66 Q2051.3 1513.66 2054.35 1518.27 Q2057.43 1522.85 2057.43 1531.6 Q2057.43 1540.33 2054.35 1544.94 Q2051.3 1549.52 2045.49 1549.52 Q2039.67 1549.52 2036.6 1544.94 Q2033.54 1540.33 2033.54 1531.6 Q2033.54 1522.85 2036.6 1518.27 Q2039.67 1513.66 2045.49 1513.66 Z" fill="#000000" fill-rule="evenodd" fill-opacity="1" /><path clip-path="url(#clip080)" d="M2066.46 1544.91 L2074.1 1544.91 L2074.1 1518.55 L2065.79 1520.21 L2065.79 1515.95 L2074.05 1514.29 L2078.73 1514.29 L2078.73 1544.91 L2086.36 1544.91 L2086.36 1548.85 L2066.46 1548.85 L2066.46 1544.91 Z" fill="#000000" fill-rule="evenodd" fill-opacity="1" /><polyline clip-path="url(#clip082)" style="stroke:#000000; stroke-linecap:butt; stroke-linejoin:round; stroke-width:2; stroke-opacity:0.1; fill:none" points="
  277.431,1447.87 2352.76,1447.87 
  "/>
<polyline clip-path="url(#clip082)" style="stroke:#000000; stroke-linecap:butt; stroke-linejoin:round; stroke-width:2; stroke-opacity:0.1; fill:none" points="
  277.431,1134.79 2352.76,1134.79 
  "/>
<polyline clip-path="url(#clip082)" style="stroke:#000000; stroke-linecap:butt; stroke-linejoin:round; stroke-width:2; stroke-opacity:0.1; fill:none" points="
  277.431,821.71 2352.76,821.71 
  "/>
<polyline clip-path="url(#clip082)" style="stroke:#000000; stroke-linecap:butt; stroke-linejoin:round; stroke-width:2; stroke-opacity:0.1; fill:none" points="
  277.431,508.628 2352.76,508.628 
  "/>
<polyline clip-path="url(#clip082)" style="stroke:#000000; stroke-linecap:butt; stroke-linejoin:round; stroke-width:2; stroke-opacity:0.1; fill:none" points="
  277.431,195.547 2352.76,195.547 
  "/>
<polyline clip-path="url(#clip080)" style="stroke:#000000; stroke-linecap:butt; stroke-linejoin:round; stroke-width:4; stroke-opacity:1; fill:none" points="
  277.431,1486.45 277.431,123.472 
  "/>
<polyline clip-path="url(#clip080)" style="stroke:#000000; stroke-linecap:butt; stroke-linejoin:round; stroke-width:4; stroke-opacity:1; fill:none" points="
  277.431,1447.87 296.329,1447.87 
  "/>
<polyline clip-path="url(#clip080)" style="stroke:#000000; stroke-linecap:butt; stroke-linejoin:round; stroke-width:4; stroke-opacity:1; fill:none" points="
  277.431,1134.79 296.329,1134.79 
  "/>
<polyline clip-path="url(#clip080)" style="stroke:#000000; stroke-linecap:butt; stroke-linejoin:round; stroke-width:4; stroke-opacity:1; fill:none" points="
  277.431,821.71 296.329,821.71 
  "/>
<polyline clip-path="url(#clip080)" style="stroke:#000000; stroke-linecap:butt; stroke-linejoin:round; stroke-width:4; stroke-opacity:1; fill:none" points="
  277.431,508.628 296.329,508.628 
  "/>
<polyline clip-path="url(#clip080)" style="stroke:#000000; stroke-linecap:butt; stroke-linejoin:round; stroke-width:4; stroke-opacity:1; fill:none" points="
  277.431,195.547 296.329,195.547 
  "/>
<path clip-path="url(#clip080)" d="M229.487 1433.67 Q225.875 1433.67 224.047 1437.24 Q222.241 1440.78 222.241 1447.91 Q222.241 1455.01 224.047 1458.58 Q225.875 1462.12 229.487 1462.12 Q233.121 1462.12 234.926 1458.58 Q236.755 1455.01 236.755 1447.91 Q236.755 1440.78 234.926 1437.24 Q233.121 1433.67 229.487 1433.67 M229.487 1429.97 Q235.297 1429.97 238.352 1434.57 Q241.431 1439.16 241.431 1447.91 Q241.431 1456.63 238.352 1461.24 Q235.297 1465.82 229.487 1465.82 Q223.676 1465.82 220.598 1461.24 Q217.542 1456.63 217.542 1447.91 Q217.542 1439.16 220.598 1434.57 Q223.676 1429.97 229.487 1429.97 Z" fill="#000000" fill-rule="evenodd" fill-opacity="1" /><path clip-path="url(#clip080)" d="M54.5569 1154.58 L62.1958 1154.58 L62.1958 1128.22 L53.8856 1129.88 L53.8856 1125.63 L62.1495 1123.96 L66.8254 1123.96 L66.8254 1154.58 L74.4642 1154.58 L74.4642 1158.52 L54.5569 1158.52 L54.5569 1154.58 Z" fill="#000000" fill-rule="evenodd" fill-opacity="1" /><path clip-path="url(#clip080)" d="M83.9086 1152.64 L88.7928 1152.64 L88.7928 1158.52 L83.9086 1158.52 L83.9086 1152.64 Z" fill="#000000" fill-rule="evenodd" fill-opacity="1" /><path clip-path="url(#clip080)" d="M108.978 1127.04 Q105.367 1127.04 103.538 1130.6 Q101.733 1134.14 101.733 1141.27 Q101.733 1148.38 103.538 1151.95 Q105.367 1155.49 108.978 1155.49 Q112.612 1155.49 114.418 1151.95 Q116.246 1148.38 116.246 1141.27 Q116.246 1134.14 114.418 1130.6 Q112.612 1127.04 108.978 1127.04 M108.978 1123.33 Q114.788 1123.33 117.844 1127.94 Q120.922 1132.52 120.922 1141.27 Q120.922 1150 117.844 1154.61 Q114.788 1159.19 108.978 1159.19 Q103.168 1159.19 100.089 1154.61 Q97.0335 1150 97.0335 1141.27 Q97.0335 1132.52 100.089 1127.94 Q103.168 1123.33 108.978 1123.33 Z" fill="#000000" fill-rule="evenodd" fill-opacity="1" /><path clip-path="url(#clip080)" d="M157.311 1133.06 L146.732 1143.68 L157.311 1154.26 L154.556 1157.06 L143.931 1146.44 L133.306 1157.06 L130.575 1154.26 L141.131 1143.68 L130.575 1133.06 L133.306 1130.26 L143.931 1140.88 L154.556 1130.26 L157.311 1133.06 Z" fill="#000000" fill-rule="evenodd" fill-opacity="1" /><path clip-path="url(#clip080)" d="M169.672 1154.58 L177.311 1154.58 L177.311 1128.22 L169.001 1129.88 L169.001 1125.63 L177.265 1123.96 L181.94 1123.96 L181.94 1154.58 L189.579 1154.58 L189.579 1158.52 L169.672 1158.52 L169.672 1154.58 Z" fill="#000000" fill-rule="evenodd" fill-opacity="1" /><path clip-path="url(#clip080)" d="M209.024 1127.04 Q205.413 1127.04 203.584 1130.6 Q201.778 1134.14 201.778 1141.27 Q201.778 1148.38 203.584 1151.95 Q205.413 1155.49 209.024 1155.49 Q212.658 1155.49 214.463 1151.95 Q216.292 1148.38 216.292 1141.27 Q216.292 1134.14 214.463 1130.6 Q212.658 1127.04 209.024 1127.04 M209.024 1123.33 Q214.834 1123.33 217.889 1127.94 Q220.968 1132.52 220.968 1141.27 Q220.968 1150 217.889 1154.61 Q214.834 1159.19 209.024 1159.19 Q203.214 1159.19 200.135 1154.61 Q197.079 1150 197.079 1141.27 Q197.079 1132.52 200.135 1127.94 Q203.214 1123.33 209.024 1123.33 Z" fill="#000000" fill-rule="evenodd" fill-opacity="1" /><path clip-path="url(#clip080)" d="M233.645 1106.34 L224.053 1121.33 L233.645 1121.33 L233.645 1106.34 M232.648 1103.03 L237.425 1103.03 L237.425 1121.33 L241.431 1121.33 L241.431 1124.49 L237.425 1124.49 L237.425 1131.11 L233.645 1131.11 L233.645 1124.49 L220.968 1124.49 L220.968 1120.82 L232.648 1103.03 Z" fill="#000000" fill-rule="evenodd" fill-opacity="1" /><path clip-path="url(#clip080)" d="M57.7745 841.502 L74.0939 841.502 L74.0939 845.437 L52.1495 845.437 L52.1495 841.502 Q54.8115 838.748 59.3949 834.118 Q64.0013 829.465 65.1819 828.123 Q67.4272 825.6 68.3068 823.864 Q69.2096 822.104 69.2096 820.414 Q69.2096 817.66 67.2652 815.924 Q65.3439 814.188 62.2421 814.188 Q60.043 814.188 57.5893 814.952 Q55.1588 815.715 52.381 817.266 L52.381 812.544 Q55.2051 811.41 57.6588 810.831 Q60.1124 810.252 62.1495 810.252 Q67.5198 810.252 70.7142 812.938 Q73.9087 815.623 73.9087 820.114 Q73.9087 822.243 73.0985 824.164 Q72.3115 826.063 70.205 828.655 Q69.6263 829.326 66.5245 832.544 Q63.4226 835.738 57.7745 841.502 Z" fill="#000000" fill-rule="evenodd" fill-opacity="1" /><path clip-path="url(#clip080)" d="M83.9086 839.558 L88.7928 839.558 L88.7928 845.437 L83.9086 845.437 L83.9086 839.558 Z" fill="#000000" fill-rule="evenodd" fill-opacity="1" /><path clip-path="url(#clip080)" d="M108.978 813.956 Q105.367 813.956 103.538 817.521 Q101.733 821.063 101.733 828.192 Q101.733 835.299 103.538 838.863 Q105.367 842.405 108.978 842.405 Q112.612 842.405 114.418 838.863 Q116.246 835.299 116.246 828.192 Q116.246 821.063 114.418 817.521 Q112.612 813.956 108.978 813.956 M108.978 810.252 Q114.788 810.252 117.844 814.859 Q120.922 819.442 120.922 828.192 Q120.922 836.919 117.844 841.525 Q114.788 846.109 108.978 846.109 Q103.168 846.109 100.089 841.525 Q97.0335 836.919 97.0335 828.192 Q97.0335 819.442 100.089 814.859 Q103.168 810.252 108.978 810.252 Z" fill="#000000" fill-rule="evenodd" fill-opacity="1" /><path clip-path="url(#clip080)" d="M157.311 819.975 L146.732 830.6 L157.311 841.178 L154.556 843.979 L143.931 833.354 L133.306 843.979 L130.575 841.178 L141.131 830.6 L130.575 819.975 L133.306 817.174 L143.931 827.799 L154.556 817.174 L157.311 819.975 Z" fill="#000000" fill-rule="evenodd" fill-opacity="1" /><path clip-path="url(#clip080)" d="M169.672 841.502 L177.311 841.502 L177.311 815.137 L169.001 816.803 L169.001 812.544 L177.265 810.877 L181.94 810.877 L181.94 841.502 L189.579 841.502 L189.579 845.437 L169.672 845.437 L169.672 841.502 Z" fill="#000000" fill-rule="evenodd" fill-opacity="1" /><path clip-path="url(#clip080)" d="M209.024 813.956 Q205.413 813.956 203.584 817.521 Q201.778 821.063 201.778 828.192 Q201.778 835.299 203.584 838.863 Q205.413 842.405 209.024 842.405 Q212.658 842.405 214.463 838.863 Q216.292 835.299 216.292 828.192 Q216.292 821.063 214.463 817.521 Q212.658 813.956 209.024 813.956 M209.024 810.252 Q214.834 810.252 217.889 814.859 Q220.968 819.442 220.968 828.192 Q220.968 836.919 217.889 841.525 Q214.834 846.109 209.024 846.109 Q203.214 846.109 200.135 841.525 Q197.079 836.919 197.079 828.192 Q197.079 819.442 200.135 814.859 Q203.214 810.252 209.024 810.252 Z" fill="#000000" fill-rule="evenodd" fill-opacity="1" /><path clip-path="url(#clip080)" d="M233.645 793.257 L224.053 808.247 L233.645 808.247 L233.645 793.257 M232.648 789.947 L237.425 789.947 L237.425 808.247 L241.431 808.247 L241.431 811.407 L237.425 811.407 L237.425 818.027 L233.645 818.027 L233.645 811.407 L220.968 811.407 L220.968 807.739 L232.648 789.947 Z" fill="#000000" fill-rule="evenodd" fill-opacity="1" /><path clip-path="url(#clip080)" d="M67.9133 513.722 Q71.2698 514.439 73.1448 516.708 Q75.0429 518.976 75.0429 522.31 Q75.0429 527.425 71.5244 530.226 Q68.0059 533.027 61.5245 533.027 Q59.3486 533.027 57.0338 532.587 Q54.7421 532.171 52.2884 531.314 L52.2884 526.8 Q54.2328 527.935 56.5477 528.513 Q58.8625 529.092 61.3856 529.092 Q65.7837 529.092 68.0754 527.356 Q70.3902 525.62 70.3902 522.31 Q70.3902 519.254 68.2374 517.541 Q66.1078 515.805 62.2884 515.805 L58.2606 515.805 L58.2606 511.962 L62.4735 511.962 Q65.9226 511.962 67.7513 510.597 Q69.58 509.208 69.58 506.615 Q69.58 503.953 67.6819 502.541 Q65.8069 501.106 62.2884 501.106 Q60.3671 501.106 58.168 501.523 Q55.969 501.939 53.3301 502.819 L53.3301 498.652 Q55.9921 497.912 58.3069 497.541 Q60.6449 497.171 62.705 497.171 Q68.0291 497.171 71.1309 499.601 Q74.2327 502.009 74.2327 506.129 Q74.2327 508.999 72.5892 510.99 Q70.9457 512.958 67.9133 513.722 Z" fill="#000000" fill-rule="evenodd" fill-opacity="1" /><path clip-path="url(#clip080)" d="M83.9086 526.476 L88.7928 526.476 L88.7928 532.356 L83.9086 532.356 L83.9086 526.476 Z" fill="#000000" fill-rule="evenodd" fill-opacity="1" /><path clip-path="url(#clip080)" d="M108.978 500.875 Q105.367 500.875 103.538 504.439 Q101.733 507.981 101.733 515.111 Q101.733 522.217 103.538 525.782 Q105.367 529.323 108.978 529.323 Q112.612 529.323 114.418 525.782 Q116.246 522.217 116.246 515.111 Q116.246 507.981 114.418 504.439 Q112.612 500.875 108.978 500.875 M108.978 497.171 Q114.788 497.171 117.844 501.777 Q120.922 506.361 120.922 515.111 Q120.922 523.837 117.844 528.444 Q114.788 533.027 108.978 533.027 Q103.168 533.027 100.089 528.444 Q97.0335 523.837 97.0335 515.111 Q97.0335 506.361 100.089 501.777 Q103.168 497.171 108.978 497.171 Z" fill="#000000" fill-rule="evenodd" fill-opacity="1" /><path clip-path="url(#clip080)" d="M157.311 506.893 L146.732 517.518 L157.311 528.097 L154.556 530.898 L143.931 520.273 L133.306 530.898 L130.575 528.097 L141.131 517.518 L130.575 506.893 L133.306 504.092 L143.931 514.717 L154.556 504.092 L157.311 506.893 Z" fill="#000000" fill-rule="evenodd" fill-opacity="1" /><path clip-path="url(#clip080)" d="M169.672 528.421 L177.311 528.421 L177.311 502.055 L169.001 503.722 L169.001 499.463 L177.265 497.796 L181.94 497.796 L181.94 528.421 L189.579 528.421 L189.579 532.356 L169.672 532.356 L169.672 528.421 Z" fill="#000000" fill-rule="evenodd" fill-opacity="1" /><path clip-path="url(#clip080)" d="M209.024 500.875 Q205.413 500.875 203.584 504.439 Q201.778 507.981 201.778 515.111 Q201.778 522.217 203.584 525.782 Q205.413 529.323 209.024 529.323 Q212.658 529.323 214.463 525.782 Q216.292 522.217 216.292 515.111 Q216.292 507.981 214.463 504.439 Q212.658 500.875 209.024 500.875 M209.024 497.171 Q214.834 497.171 217.889 501.777 Q220.968 506.361 220.968 515.111 Q220.968 523.837 217.889 528.444 Q214.834 533.027 209.024 533.027 Q203.214 533.027 200.135 528.444 Q197.079 523.837 197.079 515.111 Q197.079 506.361 200.135 501.777 Q203.214 497.171 209.024 497.171 Z" fill="#000000" fill-rule="evenodd" fill-opacity="1" /><path clip-path="url(#clip080)" d="M233.645 480.176 L224.053 495.165 L233.645 495.165 L233.645 480.176 M232.648 476.865 L237.425 476.865 L237.425 495.165 L241.431 495.165 L241.431 498.325 L237.425 498.325 L237.425 504.945 L233.645 504.945 L233.645 498.325 L220.968 498.325 L220.968 494.658 L232.648 476.865 Z" fill="#000000" fill-rule="evenodd" fill-opacity="1" /><path clip-path="url(#clip080)" d="M66.5939 188.788 L54.7884 207.237 L66.5939 207.237 L66.5939 188.788 M65.367 184.714 L71.2466 184.714 L71.2466 207.237 L76.1772 207.237 L76.1772 211.126 L71.2466 211.126 L71.2466 219.274 L66.5939 219.274 L66.5939 211.126 L50.9921 211.126 L50.9921 206.612 L65.367 184.714 Z" fill="#000000" fill-rule="evenodd" fill-opacity="1" /><path clip-path="url(#clip080)" d="M83.9086 213.395 L88.7928 213.395 L88.7928 219.274 L83.9086 219.274 L83.9086 213.395 Z" fill="#000000" fill-rule="evenodd" fill-opacity="1" /><path clip-path="url(#clip080)" d="M108.978 187.793 Q105.367 187.793 103.538 191.358 Q101.733 194.899 101.733 202.029 Q101.733 209.135 103.538 212.7 Q105.367 216.242 108.978 216.242 Q112.612 216.242 114.418 212.7 Q116.246 209.135 116.246 202.029 Q116.246 194.899 114.418 191.358 Q112.612 187.793 108.978 187.793 M108.978 184.089 Q114.788 184.089 117.844 188.696 Q120.922 193.279 120.922 202.029 Q120.922 210.756 117.844 215.362 Q114.788 219.946 108.978 219.946 Q103.168 219.946 100.089 215.362 Q97.0335 210.756 97.0335 202.029 Q97.0335 193.279 100.089 188.696 Q103.168 184.089 108.978 184.089 Z" fill="#000000" fill-rule="evenodd" fill-opacity="1" /><path clip-path="url(#clip080)" d="M157.311 193.811 L146.732 204.436 L157.311 215.015 L154.556 217.816 L143.931 207.191 L133.306 217.816 L130.575 215.015 L141.131 204.436 L130.575 193.811 L133.306 191.011 L143.931 201.635 L154.556 191.011 L157.311 193.811 Z" fill="#000000" fill-rule="evenodd" fill-opacity="1" /><path clip-path="url(#clip080)" d="M169.672 215.339 L177.311 215.339 L177.311 188.973 L169.001 190.64 L169.001 186.381 L177.265 184.714 L181.94 184.714 L181.94 215.339 L189.579 215.339 L189.579 219.274 L169.672 219.274 L169.672 215.339 Z" fill="#000000" fill-rule="evenodd" fill-opacity="1" /><path clip-path="url(#clip080)" d="M209.024 187.793 Q205.413 187.793 203.584 191.358 Q201.778 194.899 201.778 202.029 Q201.778 209.135 203.584 212.7 Q205.413 216.242 209.024 216.242 Q212.658 216.242 214.463 212.7 Q216.292 209.135 216.292 202.029 Q216.292 194.899 214.463 191.358 Q212.658 187.793 209.024 187.793 M209.024 184.089 Q214.834 184.089 217.889 188.696 Q220.968 193.279 220.968 202.029 Q220.968 210.756 217.889 215.362 Q214.834 219.946 209.024 219.946 Q203.214 219.946 200.135 215.362 Q197.079 210.756 197.079 202.029 Q197.079 193.279 200.135 188.696 Q203.214 184.089 209.024 184.089 Z" fill="#000000" fill-rule="evenodd" fill-opacity="1" /><path clip-path="url(#clip080)" d="M233.645 167.094 L224.053 182.084 L233.645 182.084 L233.645 167.094 M232.648 163.784 L237.425 163.784 L237.425 182.084 L241.431 182.084 L241.431 185.244 L237.425 185.244 L237.425 191.864 L233.645 191.864 L233.645 185.244 L220.968 185.244 L220.968 181.576 L232.648 163.784 Z" fill="#000000" fill-rule="evenodd" fill-opacity="1" /><path clip-path="url(#clip080)" d="M423.57 18.8205 L423.57 65.8515 L433.455 65.8515 Q445.972 65.8515 451.765 60.1802 Q457.598 54.509 457.598 42.2752 Q457.598 30.1225 451.765 24.4918 Q445.972 18.8205 433.455 18.8205 L423.57 18.8205 M415.388 12.096 L432.199 12.096 Q449.78 12.096 458.003 19.4281 Q466.226 26.7198 466.226 42.2752 Q466.226 57.9117 457.963 65.2439 Q449.699 72.576 432.199 72.576 L415.388 72.576 L415.388 12.096 Z" fill="#000000" fill-rule="evenodd" fill-opacity="1" /><path clip-path="url(#clip080)" d="M499.565 49.7694 Q490.532 49.7694 487.048 51.8354 Q483.564 53.9013 483.564 58.8839 Q483.564 62.8538 486.157 65.2034 Q488.79 67.5124 493.286 67.5124 Q499.484 67.5124 503.211 63.1374 Q506.979 58.7219 506.979 51.4303 L506.979 49.7694 L499.565 49.7694 M514.432 46.6907 L514.432 72.576 L506.979 72.576 L506.979 65.6895 Q504.426 69.8214 500.619 71.8063 Q496.811 73.7508 491.302 73.7508 Q484.334 73.7508 480.202 69.8619 Q476.111 65.9325 476.111 59.3701 Q476.111 51.7138 481.215 47.825 Q486.359 43.9361 496.527 43.9361 L506.979 43.9361 L506.979 43.2069 Q506.979 38.0623 503.576 35.2672 Q500.214 32.4315 494.097 32.4315 Q490.208 32.4315 486.521 33.3632 Q482.835 34.295 479.432 36.1584 L479.432 29.2718 Q483.524 27.692 487.372 26.9223 Q491.221 26.1121 494.866 26.1121 Q504.71 26.1121 509.571 31.2163 Q514.432 36.3204 514.432 46.6907 Z" fill="#000000" fill-rule="evenodd" fill-opacity="1" /><path clip-path="url(#clip080)" d="M529.785 27.2059 L537.239 27.2059 L537.239 72.576 L529.785 72.576 L529.785 27.2059 M529.785 9.54393 L537.239 9.54393 L537.239 18.9825 L529.785 18.9825 L529.785 9.54393 Z" fill="#000000" fill-rule="evenodd" fill-opacity="1" /><path clip-path="url(#clip080)" d="M552.835 9.54393 L560.288 9.54393 L560.288 72.576 L552.835 72.576 L552.835 9.54393 Z" fill="#000000" fill-rule="evenodd" fill-opacity="1" /><path clip-path="url(#clip080)" d="M594.762 76.7889 Q591.602 84.8907 588.604 87.3618 Q585.607 89.8329 580.583 89.8329 L574.629 89.8329 L574.629 83.5945 L579.004 83.5945 Q582.082 83.5945 583.784 82.1361 Q585.485 80.6778 587.551 75.2496 L588.888 71.8468 L570.537 27.2059 L578.436 27.2059 L592.615 62.6918 L606.793 27.2059 L614.692 27.2059 L594.762 76.7889 Z" fill="#000000" fill-rule="evenodd" fill-opacity="1" /><path clip-path="url(#clip080)" d="M689.067 45.1919 L689.067 72.576 L681.613 72.576 L681.613 45.4349 Q681.613 38.994 679.101 35.7938 Q676.59 32.5936 671.567 32.5936 Q665.531 32.5936 662.047 36.4419 Q658.563 40.2903 658.563 46.9338 L658.563 72.576 L651.069 72.576 L651.069 27.2059 L658.563 27.2059 L658.563 34.2544 Q661.237 30.163 664.842 28.1376 Q668.488 26.1121 673.228 26.1121 Q681.046 26.1121 685.056 30.9732 Q689.067 35.7938 689.067 45.1919 Z" fill="#000000" fill-rule="evenodd" fill-opacity="1" /><path clip-path="url(#clip080)" d="M703.164 54.671 L703.164 27.2059 L710.617 27.2059 L710.617 54.3874 Q710.617 60.8284 713.129 64.0691 Q715.641 67.2693 720.664 67.2693 Q726.7 67.2693 730.183 63.421 Q733.708 59.5726 733.708 52.9291 L733.708 27.2059 L741.161 27.2059 L741.161 72.576 L733.708 72.576 L733.708 65.6084 Q730.994 69.7404 727.388 71.7658 Q723.823 73.7508 719.084 73.7508 Q711.266 73.7508 707.215 68.8897 Q703.164 64.0286 703.164 54.671 M721.92 26.1121 L721.92 26.1121 Z" fill="#000000" fill-rule="evenodd" fill-opacity="1" /><path clip-path="url(#clip080)" d="M791.838 35.9153 Q794.633 30.8922 798.522 28.5022 Q802.411 26.1121 807.677 26.1121 Q814.766 26.1121 818.615 31.0947 Q822.463 36.0368 822.463 45.1919 L822.463 72.576 L814.969 72.576 L814.969 45.4349 Q814.969 38.913 812.66 35.7533 Q810.351 32.5936 805.611 32.5936 Q799.818 32.5936 796.456 36.4419 Q793.094 40.2903 793.094 46.9338 L793.094 72.576 L785.6 72.576 L785.6 45.4349 Q785.6 38.8725 783.291 35.7533 Q780.982 32.5936 776.161 32.5936 Q770.449 32.5936 767.087 36.4824 Q763.725 40.3308 763.725 46.9338 L763.725 72.576 L756.231 72.576 L756.231 27.2059 L763.725 27.2059 L763.725 34.2544 Q766.277 30.082 769.842 28.0971 Q773.407 26.1121 778.308 26.1121 Q783.25 26.1121 786.693 28.6237 Q790.177 31.1352 791.838 35.9153 Z" fill="#000000" fill-rule="evenodd" fill-opacity="1" /><path clip-path="url(#clip080)" d="M869.899 49.9314 Q869.899 41.7081 866.496 37.0496 Q863.134 32.3505 857.22 32.3505 Q851.305 32.3505 847.903 37.0496 Q844.54 41.7081 844.54 49.9314 Q844.54 58.1548 847.903 62.8538 Q851.305 67.5124 857.22 67.5124 Q863.134 67.5124 866.496 62.8538 Q869.899 58.1548 869.899 49.9314 M844.54 34.0924 Q846.89 30.0415 850.455 28.0971 Q854.06 26.1121 859.043 26.1121 Q867.306 26.1121 872.451 32.6746 Q877.636 39.2371 877.636 49.9314 Q877.636 60.6258 872.451 67.1883 Q867.306 73.7508 859.043 73.7508 Q854.06 73.7508 850.455 71.8063 Q846.89 69.8214 844.54 65.7705 L844.54 72.576 L837.046 72.576 L837.046 9.54393 L844.54 9.54393 L844.54 34.0924 Z" fill="#000000" fill-rule="evenodd" fill-opacity="1" /><path clip-path="url(#clip080)" d="M928.799 48.0275 L928.799 51.6733 L894.529 51.6733 Q895.015 59.3701 899.147 63.421 Q903.319 67.4314 910.732 67.4314 Q915.026 67.4314 919.037 66.3781 Q923.087 65.3249 927.057 63.2184 L927.057 70.267 Q923.047 71.9684 918.834 72.8596 Q914.621 73.7508 910.287 73.7508 Q899.43 73.7508 893.07 67.4314 Q886.751 61.1119 886.751 50.3365 Q886.751 39.1965 892.746 32.6746 Q898.782 26.1121 908.99 26.1121 Q918.145 26.1121 923.452 32.0264 Q928.799 37.9003 928.799 48.0275 M921.346 45.84 Q921.265 39.7232 917.902 36.0774 Q914.581 32.4315 909.071 32.4315 Q902.833 32.4315 899.066 35.9558 Q895.339 39.4801 894.772 45.8805 L921.346 45.84 Z" fill="#000000" fill-rule="evenodd" fill-opacity="1" /><path clip-path="url(#clip080)" d="M967.323 34.1734 Q966.068 33.4443 964.569 33.1202 Q963.11 32.7556 961.328 32.7556 Q955.009 32.7556 951.606 36.8875 Q948.244 40.9789 948.244 48.6757 L948.244 72.576 L940.749 72.576 L940.749 27.2059 L948.244 27.2059 L948.244 34.2544 Q950.593 30.1225 954.36 28.1376 Q958.128 26.1121 963.515 26.1121 Q964.285 26.1121 965.217 26.2337 Q966.149 26.3147 967.283 26.5172 L967.323 34.1734 Z" fill="#000000" fill-rule="evenodd" fill-opacity="1" /><path clip-path="url(#clip080)" d="M1019.09 32.4315 Q1013.1 32.4315 1009.61 37.1306 Q1006.13 41.7891 1006.13 49.9314 Q1006.13 58.0738 1009.57 62.7728 Q1013.06 67.4314 1019.09 67.4314 Q1025.05 67.4314 1028.53 62.7323 Q1032.02 58.0333 1032.02 49.9314 Q1032.02 41.8701 1028.53 37.1711 Q1025.05 32.4315 1019.09 32.4315 M1019.09 26.1121 Q1028.82 26.1121 1034.37 32.4315 Q1039.92 38.7509 1039.92 49.9314 Q1039.92 61.0714 1034.37 67.4314 Q1028.82 73.7508 1019.09 73.7508 Q1009.33 73.7508 1003.78 67.4314 Q998.272 61.0714 998.272 49.9314 Q998.272 38.7509 1003.78 32.4315 Q1009.33 26.1121 1019.09 26.1121 Z" fill="#000000" fill-rule="evenodd" fill-opacity="1" /><path clip-path="url(#clip080)" d="M1075.24 9.54393 L1075.24 15.7418 L1068.11 15.7418 Q1064.1 15.7418 1062.52 17.3622 Q1060.98 18.9825 1060.98 23.1955 L1060.98 27.2059 L1073.25 27.2059 L1073.25 32.9987 L1060.98 32.9987 L1060.98 72.576 L1053.49 72.576 L1053.49 32.9987 L1046.36 32.9987 L1046.36 27.2059 L1053.49 27.2059 L1053.49 24.0462 Q1053.49 16.471 1057.01 13.0277 Q1060.53 9.54393 1068.19 9.54393 L1075.24 9.54393 Z" fill="#000000" fill-rule="evenodd" fill-opacity="1" /><path clip-path="url(#clip080)" d="M1153.46 16.7545 L1153.46 25.383 Q1149.33 21.5346 1144.63 19.6307 Q1139.97 17.7268 1134.71 17.7268 Q1124.34 17.7268 1118.83 24.0867 Q1113.32 30.4061 1113.32 42.3968 Q1113.32 54.3469 1118.83 60.7069 Q1124.34 67.0263 1134.71 67.0263 Q1139.97 67.0263 1144.63 65.1223 Q1149.33 63.2184 1153.46 59.3701 L1153.46 67.9175 Q1149.17 70.8341 1144.35 72.2924 Q1139.57 73.7508 1134.22 73.7508 Q1120.49 73.7508 1112.59 65.3654 Q1104.69 56.9395 1104.69 42.3968 Q1104.69 27.8135 1112.59 19.4281 Q1120.49 11.0023 1134.22 11.0023 Q1139.65 11.0023 1144.43 12.4606 Q1149.25 13.8784 1153.46 16.7545 Z" fill="#000000" fill-rule="evenodd" fill-opacity="1" /><path clip-path="url(#clip080)" d="M1183.36 32.4315 Q1177.36 32.4315 1173.88 37.1306 Q1170.4 41.7891 1170.4 49.9314 Q1170.4 58.0738 1173.84 62.7728 Q1177.32 67.4314 1183.36 67.4314 Q1189.31 67.4314 1192.8 62.7323 Q1196.28 58.0333 1196.28 49.9314 Q1196.28 41.8701 1192.8 37.1711 Q1189.31 32.4315 1183.36 32.4315 M1183.36 26.1121 Q1193.08 26.1121 1198.63 32.4315 Q1204.18 38.7509 1204.18 49.9314 Q1204.18 61.0714 1198.63 67.4314 Q1193.08 73.7508 1183.36 73.7508 Q1173.6 73.7508 1168.05 67.4314 Q1162.54 61.0714 1162.54 49.9314 Q1162.54 38.7509 1168.05 32.4315 Q1173.6 26.1121 1183.36 26.1121 Z" fill="#000000" fill-rule="evenodd" fill-opacity="1" /><path clip-path="url(#clip080)" d="M1211.19 27.2059 L1219.09 27.2059 L1233.27 65.2844 L1247.44 27.2059 L1255.34 27.2059 L1238.33 72.576 L1228.2 72.576 L1211.19 27.2059 Z" fill="#000000" fill-rule="evenodd" fill-opacity="1" /><path clip-path="url(#clip080)" d="M1265.63 27.2059 L1273.09 27.2059 L1273.09 72.576 L1265.63 72.576 L1265.63 27.2059 M1265.63 9.54393 L1273.09 9.54393 L1273.09 18.9825 L1265.63 18.9825 L1265.63 9.54393 Z" fill="#000000" fill-rule="evenodd" fill-opacity="1" /><path clip-path="url(#clip080)" d="M1318.54 34.0924 L1318.54 9.54393 L1325.99 9.54393 L1325.99 72.576 L1318.54 72.576 L1318.54 65.7705 Q1316.19 69.8214 1312.58 71.8063 Q1309.02 73.7508 1303.99 73.7508 Q1295.77 73.7508 1290.59 67.1883 Q1285.44 60.6258 1285.44 49.9314 Q1285.44 39.2371 1290.59 32.6746 Q1295.77 26.1121 1303.99 26.1121 Q1309.02 26.1121 1312.58 28.0971 Q1316.19 30.0415 1318.54 34.0924 M1293.14 49.9314 Q1293.14 58.1548 1296.5 62.8538 Q1299.9 67.5124 1305.82 67.5124 Q1311.73 67.5124 1315.13 62.8538 Q1318.54 58.1548 1318.54 49.9314 Q1318.54 41.7081 1315.13 37.0496 Q1311.73 32.3505 1305.82 32.3505 Q1299.9 32.3505 1296.5 37.0496 Q1293.14 41.7081 1293.14 49.9314 Z" fill="#000000" fill-rule="evenodd" fill-opacity="1" /><path clip-path="url(#clip080)" d="M1337.58 46.5287 L1359.41 46.5287 L1359.41 53.1722 L1337.58 53.1722 L1337.58 46.5287 Z" fill="#000000" fill-rule="evenodd" fill-opacity="1" /><path clip-path="url(#clip080)" d="M1373.75 65.6895 L1387.12 65.6895 L1387.12 19.5497 L1372.58 22.4663 L1372.58 15.0127 L1387.04 12.096 L1395.22 12.096 L1395.22 65.6895 L1408.59 65.6895 L1408.59 72.576 L1373.75 72.576 L1373.75 65.6895 Z" fill="#000000" fill-rule="evenodd" fill-opacity="1" /><path clip-path="url(#clip080)" d="M1425.36 71.3202 L1425.36 63.8666 Q1428.44 65.3249 1431.6 66.0946 Q1434.76 66.8642 1437.8 66.8642 Q1445.9 66.8642 1450.15 61.436 Q1454.44 55.9673 1455.05 44.8678 Q1452.7 48.3516 1449.1 50.215 Q1445.49 52.0784 1441.12 52.0784 Q1432.04 52.0784 1426.74 46.6097 Q1421.47 41.1005 1421.47 31.5808 Q1421.47 22.2638 1426.98 16.633 Q1432.49 11.0023 1441.64 11.0023 Q1452.14 11.0023 1457.64 19.0636 Q1463.19 27.0843 1463.19 42.3968 Q1463.19 56.6965 1456.39 65.2439 Q1449.62 73.7508 1438.16 73.7508 Q1435.08 73.7508 1431.92 73.1431 Q1428.76 72.5355 1425.36 71.3202 M1441.64 45.678 Q1447.15 45.678 1450.35 41.9107 Q1453.59 38.1433 1453.59 31.5808 Q1453.59 25.0589 1450.35 21.2916 Q1447.15 17.4837 1441.64 17.4837 Q1436.13 17.4837 1432.89 21.2916 Q1429.69 25.0589 1429.69 31.5808 Q1429.69 38.1433 1432.89 41.9107 Q1436.13 45.678 1441.64 45.678 Z" fill="#000000" fill-rule="evenodd" fill-opacity="1" /><path clip-path="url(#clip080)" d="M1533.07 34.0924 L1533.07 9.54393 L1540.53 9.54393 L1540.53 72.576 L1533.07 72.576 L1533.07 65.7705 Q1530.72 69.8214 1527.12 71.8063 Q1523.55 73.7508 1518.53 73.7508 Q1510.31 73.7508 1505.12 67.1883 Q1499.98 60.6258 1499.98 49.9314 Q1499.98 39.2371 1505.12 32.6746 Q1510.31 26.1121 1518.53 26.1121 Q1523.55 26.1121 1527.12 28.0971 Q1530.72 30.0415 1533.07 34.0924 M1507.67 49.9314 Q1507.67 58.1548 1511.04 62.8538 Q1514.44 67.5124 1520.35 67.5124 Q1526.27 67.5124 1529.67 62.8538 Q1533.07 58.1548 1533.07 49.9314 Q1533.07 41.7081 1529.67 37.0496 Q1526.27 32.3505 1520.35 32.3505 Q1514.44 32.3505 1511.04 37.0496 Q1507.67 41.7081 1507.67 49.9314 Z" fill="#000000" fill-rule="evenodd" fill-opacity="1" /><path clip-path="url(#clip080)" d="M1594.69 48.0275 L1594.69 51.6733 L1560.42 51.6733 Q1560.9 59.3701 1565.03 63.421 Q1569.21 67.4314 1576.62 67.4314 Q1580.91 67.4314 1584.92 66.3781 Q1588.98 65.3249 1592.94 63.2184 L1592.94 70.267 Q1588.93 71.9684 1584.72 72.8596 Q1580.51 73.7508 1576.17 73.7508 Q1565.32 73.7508 1558.96 67.4314 Q1552.64 61.1119 1552.64 50.3365 Q1552.64 39.1965 1558.63 32.6746 Q1564.67 26.1121 1574.88 26.1121 Q1584.03 26.1121 1589.34 32.0264 Q1594.69 37.9003 1594.69 48.0275 M1587.23 45.84 Q1587.15 39.7232 1583.79 36.0774 Q1580.47 32.4315 1574.96 32.4315 Q1568.72 32.4315 1564.95 35.9558 Q1561.23 39.4801 1560.66 45.8805 L1587.23 45.84 Z" fill="#000000" fill-rule="evenodd" fill-opacity="1" /><path clip-path="url(#clip080)" d="M1627.54 49.7694 Q1618.51 49.7694 1615.02 51.8354 Q1611.54 53.9013 1611.54 58.8839 Q1611.54 62.8538 1614.13 65.2034 Q1616.76 67.5124 1621.26 67.5124 Q1627.46 67.5124 1631.19 63.1374 Q1634.95 58.7219 1634.95 51.4303 L1634.95 49.7694 L1627.54 49.7694 M1642.41 46.6907 L1642.41 72.576 L1634.95 72.576 L1634.95 65.6895 Q1632.4 69.8214 1628.59 71.8063 Q1624.79 73.7508 1619.28 73.7508 Q1612.31 73.7508 1608.18 69.8619 Q1604.08 65.9325 1604.08 59.3701 Q1604.08 51.7138 1609.19 47.825 Q1614.33 43.9361 1624.5 43.9361 L1634.95 43.9361 L1634.95 43.2069 Q1634.95 38.0623 1631.55 35.2672 Q1628.19 32.4315 1622.07 32.4315 Q1618.18 32.4315 1614.5 33.3632 Q1610.81 34.295 1607.41 36.1584 L1607.41 29.2718 Q1611.5 27.692 1615.35 26.9223 Q1619.19 26.1121 1622.84 26.1121 Q1632.68 26.1121 1637.55 31.2163 Q1642.41 36.3204 1642.41 46.6907 Z" fill="#000000" fill-rule="evenodd" fill-opacity="1" /><path clip-path="url(#clip080)" d="M1665.13 14.324 L1665.13 27.2059 L1680.48 27.2059 L1680.48 32.9987 L1665.13 32.9987 L1665.13 57.6282 Q1665.13 63.1779 1666.63 64.7578 Q1668.17 66.3376 1672.83 66.3376 L1680.48 66.3376 L1680.48 72.576 L1672.83 72.576 Q1664.2 72.576 1660.92 69.3758 Q1657.64 66.1351 1657.64 57.6282 L1657.64 32.9987 L1652.17 32.9987 L1652.17 27.2059 L1657.64 27.2059 L1657.64 14.324 L1665.13 14.324 Z" fill="#000000" fill-rule="evenodd" fill-opacity="1" /><path clip-path="url(#clip080)" d="M1728 45.1919 L1728 72.576 L1720.55 72.576 L1720.55 45.4349 Q1720.55 38.994 1718.04 35.7938 Q1715.53 32.5936 1710.5 32.5936 Q1704.47 32.5936 1700.98 36.4419 Q1697.5 40.2903 1697.5 46.9338 L1697.5 72.576 L1690 72.576 L1690 9.54393 L1697.5 9.54393 L1697.5 34.2544 Q1700.17 30.163 1703.78 28.1376 Q1707.42 26.1121 1712.16 26.1121 Q1719.98 26.1121 1723.99 30.9732 Q1728 35.7938 1728 45.1919 Z" fill="#000000" fill-rule="evenodd" fill-opacity="1" /><path clip-path="url(#clip080)" d="M1771.79 28.5427 L1771.79 35.5912 Q1768.63 33.9709 1765.23 33.1607 Q1761.83 32.3505 1758.18 32.3505 Q1752.63 32.3505 1749.84 34.0519 Q1747.08 35.7533 1747.08 39.156 Q1747.08 41.7486 1749.07 43.2475 Q1751.05 44.7058 1757.05 46.0426 L1759.6 46.6097 Q1767.54 48.3111 1770.86 51.4303 Q1774.22 54.509 1774.22 60.0587 Q1774.22 66.3781 1769.2 70.0644 Q1764.22 73.7508 1755.47 73.7508 Q1751.82 73.7508 1747.85 73.0216 Q1743.92 72.3329 1739.55 70.9151 L1739.55 63.2184 Q1743.68 65.3654 1747.69 66.4591 Q1751.7 67.5124 1755.63 67.5124 Q1760.9 67.5124 1763.73 65.73 Q1766.57 63.9071 1766.57 60.6258 Q1766.57 57.5877 1764.5 55.9673 Q1762.48 54.3469 1755.55 52.8481 L1752.96 52.2405 Q1746.03 50.7821 1742.95 47.7845 Q1739.87 44.7463 1739.87 39.4801 Q1739.87 33.0797 1744.41 29.5959 Q1748.95 26.1121 1757.29 26.1121 Q1761.42 26.1121 1765.07 26.7198 Q1768.71 27.3274 1771.79 28.5427 Z" fill="#000000" fill-rule="evenodd" fill-opacity="1" /><path clip-path="url(#clip080)" d="M1812.46 27.2059 L1819.92 27.2059 L1819.92 72.576 L1812.46 72.576 L1812.46 27.2059 M1812.46 9.54393 L1819.92 9.54393 L1819.92 18.9825 L1812.46 18.9825 L1812.46 9.54393 Z" fill="#000000" fill-rule="evenodd" fill-opacity="1" /><path clip-path="url(#clip080)" d="M1873.23 45.1919 L1873.23 72.576 L1865.77 72.576 L1865.77 45.4349 Q1865.77 38.994 1863.26 35.7938 Q1860.75 32.5936 1855.73 32.5936 Q1849.69 32.5936 1846.21 36.4419 Q1842.72 40.2903 1842.72 46.9338 L1842.72 72.576 L1835.23 72.576 L1835.23 27.2059 L1842.72 27.2059 L1842.72 34.2544 Q1845.4 30.163 1849 28.1376 Q1852.65 26.1121 1857.39 26.1121 Q1865.21 26.1121 1869.22 30.9732 Q1873.23 35.7938 1873.23 45.1919 Z" fill="#000000" fill-rule="evenodd" fill-opacity="1" /><path clip-path="url(#clip080)" d="M1960.08 16.7545 L1960.08 25.383 Q1955.95 21.5346 1951.25 19.6307 Q1946.59 17.7268 1941.32 17.7268 Q1930.95 17.7268 1925.44 24.0867 Q1919.93 30.4061 1919.93 42.3968 Q1919.93 54.3469 1925.44 60.7069 Q1930.95 67.0263 1941.32 67.0263 Q1946.59 67.0263 1951.25 65.1223 Q1955.95 63.2184 1960.08 59.3701 L1960.08 67.9175 Q1955.78 70.8341 1950.96 72.2924 Q1946.18 73.7508 1940.84 73.7508 Q1927.1 73.7508 1919.2 65.3654 Q1911.31 56.9395 1911.31 42.3968 Q1911.31 27.8135 1919.2 19.4281 Q1927.1 11.0023 1940.84 11.0023 Q1946.26 11.0023 1951.04 12.4606 Q1955.87 13.8784 1960.08 16.7545 Z" fill="#000000" fill-rule="evenodd" fill-opacity="1" /><path clip-path="url(#clip080)" d="M1993.01 49.7694 Q1983.98 49.7694 1980.49 51.8354 Q1977.01 53.9013 1977.01 58.8839 Q1977.01 62.8538 1979.6 65.2034 Q1982.24 67.5124 1986.73 67.5124 Q1992.93 67.5124 1996.66 63.1374 Q2000.43 58.7219 2000.43 51.4303 L2000.43 49.7694 L1993.01 49.7694 M2007.88 46.6907 L2007.88 72.576 L2000.43 72.576 L2000.43 65.6895 Q1997.87 69.8214 1994.07 71.8063 Q1990.26 73.7508 1984.75 73.7508 Q1977.78 73.7508 1973.65 69.8619 Q1969.56 65.9325 1969.56 59.3701 Q1969.56 51.7138 1974.66 47.825 Q1979.81 43.9361 1989.97 43.9361 L2000.43 43.9361 L2000.43 43.2069 Q2000.43 38.0623 1997.02 35.2672 Q1993.66 32.4315 1987.54 32.4315 Q1983.65 32.4315 1979.97 33.3632 Q1976.28 34.295 1972.88 36.1584 L1972.88 29.2718 Q1976.97 27.692 1980.82 26.9223 Q1984.67 26.1121 1988.31 26.1121 Q1998.16 26.1121 2003.02 31.2163 Q2007.88 36.3204 2007.88 46.6907 Z" fill="#000000" fill-rule="evenodd" fill-opacity="1" /><path clip-path="url(#clip080)" d="M2060.95 45.1919 L2060.95 72.576 L2053.49 72.576 L2053.49 45.4349 Q2053.49 38.994 2050.98 35.7938 Q2048.47 32.5936 2043.45 32.5936 Q2037.41 32.5936 2033.93 36.4419 Q2030.44 40.2903 2030.44 46.9338 L2030.44 72.576 L2022.95 72.576 L2022.95 27.2059 L2030.44 27.2059 L2030.44 34.2544 Q2033.12 30.163 2036.72 28.1376 Q2040.37 26.1121 2045.11 26.1121 Q2052.93 26.1121 2056.94 30.9732 Q2060.95 35.7938 2060.95 45.1919 Z" fill="#000000" fill-rule="evenodd" fill-opacity="1" /><path clip-path="url(#clip080)" d="M2096.43 49.7694 Q2087.4 49.7694 2083.91 51.8354 Q2080.43 53.9013 2080.43 58.8839 Q2080.43 62.8538 2083.02 65.2034 Q2085.66 67.5124 2090.15 67.5124 Q2096.35 67.5124 2100.08 63.1374 Q2103.84 58.7219 2103.84 51.4303 L2103.84 49.7694 L2096.43 49.7694 M2111.3 46.6907 L2111.3 72.576 L2103.84 72.576 L2103.84 65.6895 Q2101.29 69.8214 2097.49 71.8063 Q2093.68 73.7508 2088.17 73.7508 Q2081.2 73.7508 2077.07 69.8619 Q2072.98 65.9325 2072.98 59.3701 Q2072.98 51.7138 2078.08 47.825 Q2083.23 43.9361 2093.39 43.9361 L2103.84 43.9361 L2103.84 43.2069 Q2103.84 38.0623 2100.44 35.2672 Q2097.08 32.4315 2090.96 32.4315 Q2087.07 32.4315 2083.39 33.3632 Q2079.7 34.295 2076.3 36.1584 L2076.3 29.2718 Q2080.39 27.692 2084.24 26.9223 Q2088.09 26.1121 2091.73 26.1121 Q2101.58 26.1121 2106.44 31.2163 Q2111.3 36.3204 2111.3 46.6907 Z" fill="#000000" fill-rule="evenodd" fill-opacity="1" /><path clip-path="url(#clip080)" d="M2156.51 34.0924 L2156.51 9.54393 L2163.96 9.54393 L2163.96 72.576 L2156.51 72.576 L2156.51 65.7705 Q2154.16 69.8214 2150.55 71.8063 Q2146.99 73.7508 2141.96 73.7508 Q2133.74 73.7508 2128.56 67.1883 Q2123.41 60.6258 2123.41 49.9314 Q2123.41 39.2371 2128.56 32.6746 Q2133.74 26.1121 2141.96 26.1121 Q2146.99 26.1121 2150.55 28.0971 Q2154.16 30.0415 2156.51 34.0924 M2131.11 49.9314 Q2131.11 58.1548 2134.47 62.8538 Q2137.87 67.5124 2143.79 67.5124 Q2149.7 67.5124 2153.1 62.8538 Q2156.51 58.1548 2156.51 49.9314 Q2156.51 41.7081 2153.1 37.0496 Q2149.7 32.3505 2143.79 32.3505 Q2137.87 32.3505 2134.47 37.0496 Q2131.11 41.7081 2131.11 49.9314 Z" fill="#000000" fill-rule="evenodd" fill-opacity="1" /><path clip-path="url(#clip080)" d="M2199.93 49.7694 Q2190.9 49.7694 2187.42 51.8354 Q2183.93 53.9013 2183.93 58.8839 Q2183.93 62.8538 2186.52 65.2034 Q2189.16 67.5124 2193.65 67.5124 Q2199.85 67.5124 2203.58 63.1374 Q2207.35 58.7219 2207.35 51.4303 L2207.35 49.7694 L2199.93 49.7694 M2214.8 46.6907 L2214.8 72.576 L2207.35 72.576 L2207.35 65.6895 Q2204.79 69.8214 2200.99 71.8063 Q2197.18 73.7508 2191.67 73.7508 Q2184.7 73.7508 2180.57 69.8619 Q2176.48 65.9325 2176.48 59.3701 Q2176.48 51.7138 2181.58 47.825 Q2186.73 43.9361 2196.89 43.9361 L2207.35 43.9361 L2207.35 43.2069 Q2207.35 38.0623 2203.94 35.2672 Q2200.58 32.4315 2194.46 32.4315 Q2190.57 32.4315 2186.89 33.3632 Q2183.2 34.295 2179.8 36.1584 L2179.8 29.2718 Q2183.89 27.692 2187.74 26.9223 Q2191.59 26.1121 2195.23 26.1121 Q2205.08 26.1121 2209.94 31.2163 Q2214.8 36.3204 2214.8 46.6907 Z" fill="#000000" fill-rule="evenodd" fill-opacity="1" /><polyline clip-path="url(#clip082)" style="stroke:#009af9; stroke-linecap:butt; stroke-linejoin:round; stroke-width:4; stroke-opacity:1; fill:none" points="
  336.167,1447.87 338.443,1447.87 340.72,1447.87 342.996,1447.87 345.273,1447.87 347.549,1447.87 349.826,1447.87 352.103,1447.87 354.379,1447.87 356.656,1447.87 
  358.932,1447.87 361.209,1447.87 363.485,1447.87 365.762,1447.87 368.039,1447.87 370.315,1447.87 372.592,1447.87 374.868,1447.87 377.145,1447.87 379.421,1447.87 
  381.698,1447.87 383.975,1447.87 386.251,1447.87 388.528,1447.87 390.804,1447.87 393.081,1447.87 395.357,1447.87 397.634,1447.87 399.911,1447.87 402.187,1447.87 
  404.464,1447.87 406.74,1447.87 409.017,1447.87 411.293,1447.87 413.57,1447.87 415.847,1447.87 418.123,1447.87 420.4,1447.87 422.676,1447.87 424.953,1447.87 
  427.229,1447.87 429.506,1447.87 431.783,1447.87 434.059,1447.87 436.336,1447.87 438.612,1447.87 440.889,1447.84 443.166,1447.81 445.442,1447.81 447.719,1447.81 
  449.995,1447.78 452.272,1447.72 454.548,1447.72 456.825,1447.72 459.102,1447.59 461.378,1447.5 463.655,1447.28 465.931,1447.22 468.208,1447 470.484,1446.62 
  472.761,1446.43 475.038,1446.03 477.314,1445.68 479.591,1445.09 481.867,1444.43 484.144,1443.77 486.42,1442.68 488.697,1441.52 490.974,1440.23 493.25,1438.39 
  495.527,1436.82 497.803,1434.13 500.08,1430.5 502.356,1427.46 504.633,1424.49 506.91,1420.2 509.186,1416.22 511.463,1412.03 513.739,1407.99 516.016,1403.85 
  518.292,1399.16 520.569,1393.9 522.846,1387.76 525.122,1382.41 527.399,1376.58 529.675,1370.73 531.952,1364.59 534.228,1358.77 536.505,1352.76 538.782,1347.53 
  541.058,1341.86 543.335,1335.85 545.611,1330.03 547.888,1324.71 550.165,1318.63 552.441,1313.78 554.718,1308.65 556.994,1302.79 559.271,1296.09 561.547,1290.61 
  563.824,1284.51 566.101,1279.75 568.377,1275.37 570.654,1270.79 572.93,1266.41 575.207,1262.03 577.483,1258.24 579.76,1254.55 582.037,1250.35 584.313,1246.5 
  586.59,1242.87 588.866,1239.24 591.143,1236.17 593.419,1232.47 595.696,1228.56 597.973,1225.24 600.249,1222.33 602.526,1219.29 604.802,1216.63 607.079,1213.5 
  609.355,1210.71 611.632,1207.65 613.909,1204.89 616.185,1202.54 618.462,1199.94 620.738,1197.47 623.015,1195.25 625.291,1192.24 627.568,1189.8 629.845,1188.17 
  632.121,1186.7 634.398,1185.2 636.674,1184.01 638.951,1182.6 641.227,1181.72 643.504,1180.56 645.781,1179.53 648.057,1178.78 650.334,1177.9 652.61,1177.06 
  654.887,1176.27 657.163,1175.4 659.44,1174.74 661.717,1174.05 663.993,1173.71 666.27,1173.05 668.546,1172.64 670.823,1172.27 673.1,1171.86 675.376,1171.36 
  677.653,1171.17 679.929,1170.67 682.206,1170.23 684.482,1169.73 686.759,1169.14 689.036,1168.76 691.312,1168.48 693.589,1168.29 695.865,1168.01 698.142,1167.63 
  700.418,1167.35 702.695,1167.1 704.972,1166.57 707.248,1166.44 709.525,1166.26 711.801,1166.16 714.078,1165.76 716.354,1165.35 718.631,1165 720.908,1164.63 
  723.184,1164.44 725.461,1164.32 727.737,1164.25 730.014,1164.1 732.29,1163.94 734.567,1163.78 736.844,1163.44 739.12,1163.31 741.397,1163.25 743.673,1163.19 
  745.95,1163.06 748.226,1162.94 750.503,1162.75 752.78,1162.5 755.056,1162.41 757.333,1162.34 759.609,1162.31 761.886,1161.87 764.162,1161.72 766.439,1161.56 
  768.716,1161.25 770.992,1161.09 773.269,1161.03 775.545,1160.93 777.822,1160.93 780.098,1160.78 782.375,1160.62 784.652,1160.43 786.928,1160.28 789.205,1160.21 
  791.481,1160.15 793.758,1159.93 796.035,1159.74 798.311,1159.62 800.588,1159.43 802.864,1159.31 805.141,1159.15 807.417,1158.99 809.694,1158.87 811.971,1158.59 
  814.247,1158.4 816.524,1158.24 818.8,1157.9 821.077,1157.9 823.353,1157.68 825.63,1157.43 827.907,1157.3 830.183,1157.21 832.46,1157.08 834.736,1156.9 
  837.013,1156.83 839.289,1156.77 841.566,1156.55 843.843,1156.46 846.119,1156.33 848.396,1156.14 850.672,1156.05 852.949,1155.99 855.225,1155.99 857.502,1155.89 
  859.779,1155.67 862.055,1155.55 864.332,1155.27 866.608,1155.24 868.885,1155.08 871.161,1154.95 873.438,1154.55 875.715,1154.39 877.991,1154.2 880.268,1153.95 
  882.544,1153.58 884.821,1153.23 887.097,1153.17 889.374,1152.79 891.651,1152.48 893.927,1152.2 896.204,1151.79 898.48,1151.38 900.757,1150.98 903.033,1150.66 
  905.31,1150.04 907.587,1149.38 909.863,1148.66 912.14,1147.97 914.416,1147.41 916.693,1146.85 918.97,1146.34 921.246,1145.53 923.523,1144.84 925.799,1143.96 
  928.076,1143.31 930.352,1142.65 932.629,1141.93 934.906,1141.24 937.182,1140.83 939.459,1139.93 941.735,1138.83 944.012,1138.27 946.288,1137.2 948.565,1136.64 
  950.842,1136.01 953.118,1134.7 955.395,1133.88 957.671,1132.6 959.948,1131.25 962.224,1130.19 964.501,1129.03 966.778,1127.9 969.054,1126.75 971.331,1125.68 
  973.607,1124.08 975.884,1122.68 978.16,1121.08 980.437,1119.73 982.714,1118.57 984.99,1117.1 987.267,1115 989.543,1113.47 991.82,1111.91 994.096,1109.28 
  996.373,1107.46 998.65,1105.77 1000.93,1103.01 1003.2,1100.63 1005.48,1098.6 1007.76,1096.31 1010.03,1094.62 1012.31,1092.49 1014.59,1090.77 1016.86,1088.33 
  1019.14,1085.89 1021.42,1083.1 1023.69,1081.16 1025.97,1078.81 1028.25,1076.65 1030.52,1074.59 1032.8,1072.05 1035.07,1068.89 1037.35,1066.35 1039.63,1063.1 
  1041.9,1060.22 1044.18,1057.68 1046.46,1055.36 1048.73,1050.76 1051.01,1047.5 1053.29,1044.59 1055.56,1041.31 1057.84,1037.8 1060.12,1035.04 1062.39,1031.94 
  1064.67,1028.09 1066.95,1024.34 1069.22,1020.74 1071.5,1016.85 1073.78,1012.6 1076.05,1008.59 1078.33,1004.83 1080.61,1000.07 1082.88,995.408 1085.16,991.337 
  1087.44,985.483 1089.71,980.693 1091.99,976.842 1094.27,972.96 1096.54,968.639 1098.82,963.943 1101.1,959.56 1103.37,955.083 1105.65,951.795 1107.93,948.289 
  1110.2,943.373 1112.48,939.929 1114.75,933.292 1117.03,929.159 1119.31,925.496 1121.58,923.023 1123.86,919.485 1126.14,915.697 1128.41,907.964 1130.69,902.798 
  1132.97,897.977 1135.24,892.654 1137.52,887.895 1139.8,882.823 1142.07,878.753 1144.35,873.744 1146.63,868.077 1148.9,863.037 1151.18,858.935 1153.46,854.521 
  1155.73,850.92 1158.01,847.414 1160.29,842.561 1162.56,837.802 1164.84,833.137 1167.12,828.629 1169.39,824.653 1171.67,821.365 1173.95,817.734 1176.22,814.102 
  1178.5,810.627 1180.78,808.435 1183.05,802.956 1185.33,799.481 1187.61,796.789 1189.88,794.409 1192.16,791.779 1194.43,789.337 1196.71,786.269 1198.99,783.42 
  1201.26,781.354 1203.54,779.413 1205.82,777.534 1208.09,775.843 1210.37,773.558 1212.65,771.147 1214.92,768.486 1217.2,766.388 1219.48,764.416 1221.75,763.414 
  1224.03,762.256 1226.31,760.033 1228.58,758.718 1230.86,757.622 1233.14,756.151 1235.41,754.867 1237.69,753.583 1239.97,751.924 1242.24,750.578 1244.52,749.012 
  1246.8,747.51 1249.07,746.445 1251.35,745.318 1253.63,744.723 1255.9,743.94 1258.18,742.907 1260.46,741.311 1262.73,739.87 1265.01,738.994 1267.29,738.054 
  1269.56,737.397 1271.84,736.019 1274.12,734.955 1276.39,733.984 1278.67,732.45 1280.94,731.448 1283.22,730.384 1285.5,729.445 1287.77,728.38 1290.05,727.472 
  1292.33,726.283 1294.6,724.874 1296.88,723.841 1299.16,722.713 1301.43,721.774 1303.71,719.958 1305.99,718.831 1308.26,718.049 1310.54,716.828 1312.82,715.45 
  1315.09,714.323 1317.37,713.478 1319.65,712.757 1321.92,711.599 1324.2,710.284 1326.48,708.938 1328.75,708.093 1331.03,707.216 1333.31,705.682 1335.58,704.179 
  1337.86,701.956 1340.14,700.109 1342.41,698.7 1344.69,696.947 1346.97,694.849 1349.24,693.534 1351.52,691.374 1353.8,689.37 1356.07,687.241 1358.35,685.081 
  1360.62,683.14 1362.9,681.293 1365.18,680.197 1367.45,678.381 1369.73,676.659 1372.01,675.125 1374.28,673.654 1376.56,671.775 1378.84,670.523 1381.11,669.145 
  1383.39,667.016 1385.67,665.764 1387.94,664.105 1390.22,663.071 1392.5,661.443 1394.77,660.003 1397.05,659.095 1399.33,657.592 1401.6,655.964 1403.88,655.182 
  1406.16,654.149 1408.43,652.99 1410.71,651.894 1412.99,650.924 1415.26,649.358 1417.54,648.075 1419.82,646.76 1422.09,645.727 1424.37,644.85 1426.65,644.067 
  1428.92,643.285 1431.2,641.844 1433.48,641.03 1435.75,639.434 1438.03,638.338 1440.3,637.148 1442.58,636.178 1444.86,635.364 1447.13,634.393 1449.41,633.266 
  1451.69,632.515 1453.96,631.2 1456.24,630.448 1458.52,629.603 1460.79,628.914 1463.07,627.975 1465.35,627.38 1467.62,626.597 1469.9,625.658 1472.18,624.969 
  1474.45,624.437 1476.73,624.249 1479.01,623.435 1481.28,622.903 1483.56,622.214 1485.84,621.557 1488.11,621.212 1490.39,620.711 1492.67,620.336 1494.94,619.804 
  1497.22,619.271 1499.5,618.739 1501.77,618.426 1504.05,617.956 1506.33,617.205 1508.6,616.798 1510.88,616.454 1513.16,616.172 1515.43,615.796 1517.71,615.42 
  1519.99,615.264 1522.26,615.045 1524.54,614.857 1526.81,614.419 1529.09,614.012 1531.37,613.605 1533.64,613.323 1535.92,612.728 1538.2,612.603 1540.47,612.29 
  1542.75,611.976 1545.03,611.82 1547.3,611.538 1549.58,610.975 1551.86,610.724 1554.13,610.63 1556.41,610.442 1558.69,610.286 1560.96,610.098 1563.24,610.035 
  1565.52,609.879 1567.79,609.597 1570.07,609.566 1572.35,609.503 1574.62,609.347 1576.9,609.253 1579.18,609.253 1581.45,609.002 1583.73,608.595 1586.01,608.47 
  1588.28,608.376 1590.56,608.251 1592.84,608.094 1595.11,607.813 1597.39,607.656 1599.67,607.468 1601.94,607.312 1604.22,607.28 1606.49,607.28 1608.77,607.092 
  1611.05,607.03 1613.32,606.811 1615.6,606.779 1617.88,606.748 1620.15,606.748 1622.43,606.435 1624.71,606.216 1626.98,606.122 1629.26,605.903 1631.54,605.746 
  1633.81,605.59 1636.09,605.464 1638.37,605.214 1640.64,604.995 1642.92,603.742 1645.2,603.461 1647.47,603.242 1649.75,603.148 1652.03,602.96 1654.3,602.208 
  1656.58,601.582 1658.86,601.175 1661.13,600.643 1663.41,600.205 1665.69,600.048 1667.96,599.954 1670.24,599.078 1672.52,598.639 1674.79,597.95 1677.07,597.387 
  1679.35,596.792 1681.62,596.635 1683.9,596.322 1686.17,596.072 1688.45,594.632 1690.73,593.599 1693,592.941 1695.28,592.002 1697.56,591.877 1699.83,591.407 
  1702.11,590.28 1704.39,589.591 1706.66,588.339 1708.94,587.619 1711.22,586.116 1713.49,585.865 1715.77,585.552 1718.05,584.3 1720.32,582.797 1722.6,581.294 
  1724.88,579.886 1727.15,578.852 1729.43,578.665 1731.71,578.383 1733.98,576.504 1736.26,574.876 1738.54,573.092 1740.81,571.902 1743.09,570.305 1745.37,569.742 
  1747.64,569.429 1749.92,567.832 1752.2,566.204 1754.47,564.67 1756.75,563.825 1759.03,562.604 1761.3,562.197 1763.58,561.977 1765.86,561.633 1768.13,559.222 
  1770.41,556.874 1772.68,555.246 1774.96,553.806 1777.24,553.399 1779.51,552.929 1781.79,550.706 1784.07,549.423 1786.34,548.233 1788.62,547.513 1790.9,545.885 
  1793.17,545.509 1795.45,545.321 1797.73,543.537 1800,542.566 1802.28,541.533 1804.56,539.936 1806.83,538.903 1809.11,538.621 1811.39,538.402 1813.66,536.555 
  1815.94,535.71 1818.22,534.645 1820.49,533.988 1822.77,533.33 1825.05,532.892 1827.32,532.454 1829.6,530.92 1831.88,530.106 1834.15,529.229 1836.43,528.509 
  1838.71,527.1 1840.98,526.693 1843.26,526.317 1845.54,524.752 1847.81,524.126 1850.09,523.531 1852.36,522.466 1854.64,521.84 1856.92,521.496 1859.19,521.277 
  1861.47,520.369 1863.75,519.461 1866.02,518.709 1868.3,517.989 1870.58,517.488 1872.85,517.05 1875.13,516.643 1877.41,515.36 1879.68,514.733 1881.96,513.731 
  1884.24,513.074 1886.51,512.385 1888.79,512.103 1891.07,511.884 1893.34,510.882 1895.62,510.162 1897.9,509.38 1900.17,508.66 1902.45,507.971 1904.73,507.564 
  1907,507.313 1909.28,506.468 1911.56,505.497 1913.83,504.903 1916.11,504.339 1918.39,503.619 1920.66,503.337 1922.94,503.024 1925.22,502.241 1927.49,501.49 
  1929.77,500.582 1932.05,499.799 1934.32,498.985 1936.6,498.61 1938.87,498.077 1941.15,496.825 1943.43,495.635 1945.7,493.945 1947.98,492.567 1950.26,490.783 
  1952.53,489.342 1954.81,487.746 1957.09,485.178 1959.36,482.799 1961.64,478.729 1963.92,475.629 1966.19,472.154 1968.47,470.151 1970.75,466.675 1973.02,461.76 
  1975.3,456.97 1977.58,451.71 1979.85,446.45 1982.13,440.752 1984.41,434.991 1986.68,432.455 1988.96,426.914 1991.24,421.466 1993.51,415.33 1995.79,409.632 
  1998.07,404.779 2000.34,400.678 2002.62,399.269 2004.9,394.103 2007.17,386.996 2009.45,385.211 2011.73,376.79 2014,372.657 2016.28,369.683 2018.55,368.587 
  2020.83,364.172 2023.11,359.914 2025.38,355.813 2027.66,351.868 2029.94,347.955 2032.21,346.014 2034.49,344.699 2036.77,340.723 2039.04,337.748 2041.32,334.524 
  2043.6,331.643 2045.87,328.575 2048.15,325.945 2050.43,325.194 2052.7,322 2054.98,319.151 2057.26,316.803 2059.53,314.737 2061.81,312.952 2064.09,312.451 
  2066.36,311.95 2068.64,311.637 2070.92,308.726 2073.19,306.127 2075.47,304.937 2077.75,301.713 2080.02,301.587 2082.3,300.961 2084.58,299.239 2086.85,298.676 
  2089.13,296.484 2091.41,294.324 2093.68,290.817 2095.96,289.534 2098.23,288.626 2100.51,286.904 2102.79,284.838 2105.06,282.99 2107.34,281.3 2109.62,281.206 
  2111.89,280.767 2114.17,280.611 2116.45,279.233 2118.72,288.219 2121,286.966 2123.28,285.714 2125.55,283.742 2127.83,283.084 2130.11,282.74 2132.38,281.519 
  2134.66,280.423 2136.94,279.108 2139.21,276.76 2141.49,275.414 2143.77,274.568 2146.04,274.287 2148.32,273.567 2150.6,272.502 2152.87,270.655 2155.15,269.027 
  2157.43,267.148 2159.7,266.397 2161.98,266.178 2164.26,265.771 2166.53,264.706 2168.81,263.36 2171.09,262.076 2173.36,262.076 2175.64,259.822 2177.92,259.822 
  2180.19,259.822 2182.47,259.822 2184.74,251.651 2187.02,247.643 2189.3,248.27 2191.57,245.89 2193.85,245.233 2196.13,244.231 2198.4,243.323 2200.68,240.129 
  2202.96,236.372 2205.23,233.085 2207.51,231.457 2209.79,230.674 2212.06,230.205 2214.34,228.545 2216.62,225.102 2218.89,220.938 2221.17,218.151 2223.45,217.087 
  2225.72,216.398 2228,216.273 2230.28,214.613 2232.55,210.293 2234.83,205.503 2237.11,202.935 2239.38,201.276 2241.66,200.963 2243.94,200.838 2246.21,198.959 
  2248.49,194.827 2250.77,189.974 2253.04,187.156 2255.32,186.53 2257.6,186.436 2259.87,186.248 2262.15,184.996 2264.42,181.959 2266.7,175.979 2268.98,173.193 
  2271.25,172.566 2273.53,172.379 2275.81,172.379 2278.08,172.222 2280.36,169.31 2282.64,165.741 2284.91,163.738 2287.19,163.017 2289.47,162.924 2291.74,162.892 
  2294.02,162.047 
  "/>
</svg>
